<svg t="1573788211290" class="icon" viewBox="0 0 1024 1024" version="1.1" xmlns="http://www.w3.org/2000/svg" p-id="2064" width="48" height="48"><path d="M0 0v460.8h460.797V0H0z m409.598 409.6H51.195V51.198h358.402V409.6zM563.2 0v460.8H1024V0H563.2z m409.6 409.6H614.396V51.198H972.8V409.6zM0 563.2V1024h460.8V563.2H0z m409.6 409.6H51.195V614.4H409.6v358.4z m264.535-307.2h-102.4V563.2h102.399v102.4z m0 358.4h-102.4V921.6h102.399V1024zM1024 665.6H921.6V563.2H1024v102.4zM767.99 819.2v102.4h-102.4V819.2h-0.005V716.8h102.4v102.4h0.005zM1024 742.4V1024H768V921.6H921.6V742.4H1024z" fill="#ffffff" p-id="2065"></path><path d="M563.2 921.6h102.399V1024H563.2z" fill="#ffffff" p-id="2066"></path></svg>