<svg t="1574072008076" class="icon" viewBox="0 0 1024 1024" version="1.1" xmlns="http://www.w3.org/2000/svg" p-id="2381" width="48" height="48"><path d="M132.328727 488.843636a62.021818 62.021818 0 0 1-40.913454-108.846545L454.795636 62.696727a62.021818 62.021818 0 0 1 87.621819 5.934546 62.021818 62.021818 0 0 1-5.934546 87.645091L173.102545 473.576727a62.138182 62.138182 0 0 1-40.773818 15.266909z" fill="#F0908C" opacity=".8" p-id="2382"></path><path d="M858.949818 488.843636a61.882182 61.882182 0 0 1-40.773818-15.266909L454.795636 156.276364a62.021818 62.021818 0 0 1-5.934545-87.645091 62.021818 62.021818 0 0 1 87.621818-5.934546l363.380364 317.300364a62.021818 62.021818 0 0 1-40.913455 108.846545zM132.189091 971.682909a62.068364 62.068364 0 0 1-62.138182-62.138182V426.728727a62.068364 62.068364 0 0 1 62.138182-62.138182 62.068364 62.068364 0 0 1 62.138182 62.138182v482.676364a62.184727 62.184727 0 0 1-62.138182 62.277818z" fill="#F0908C" opacity=".8" p-id="2383"></path><path d="M858.949818 971.682909a62.068364 62.068364 0 0 1-62.114909-62.138182V426.728727a62.068364 62.068364 0 0 1 62.138182-62.138182 62.068364 62.068364 0 0 1 62.114909 62.138182v482.676364a62.184727 62.184727 0 0 1-62.138182 62.277818z" fill="#F0908C" opacity=".8" p-id="2384"></path><path d="M858.949818 971.682909H132.189091a62.068364 62.068364 0 0 1-62.138182-62.138182 62.068364 62.068364 0 0 1 62.138182-62.114909h726.760727a62.068364 62.068364 0 0 1 62.138182 62.138182 62.068364 62.068364 0 0 1-62.138182 62.114909z" fill="#F0908C" opacity=".8" p-id="2385"></path></svg>