<svg t="1574072046219" class="icon" viewBox="0 0 1024 1024" version="1.1" xmlns="http://www.w3.org/2000/svg" p-id="2510" width="48" height="48"><path d="M512.488727 550.167273c-138.612364 0-251.275636-112.802909-251.275636-251.298909 0-138.519273 112.663273-251.298909 251.275636-251.298909 138.635636 0 251.298909 112.779636 251.298909 251.298909 0 138.472727-112.663273 251.275636-251.298909 251.275636z m0-377.809455a126.626909 126.626909 0 0 0-126.487272 126.510546 126.626909 126.626909 0 0 0 126.487272 126.487272 126.626909 126.626909 0 0 0 126.510546-126.487272 126.626909 126.626909 0 0 0-126.510546-126.510546z" fill="#9E9E9E" opacity=".8" p-id="2511"></path><path d="M938.752 976.407273a62.440727 62.440727 0 0 1-62.370909-62.370909c0-200.680727-163.211636-363.892364-363.892364-363.892364-200.657455 0-363.845818 163.304727-363.845818 363.869091a62.440727 62.440727 0 0 1-62.394182 62.394182 62.440727 62.440727 0 0 1-62.417454-62.370909c0-269.544727 219.252364-488.680727 488.773818-488.680728 269.544727 0 488.680727 219.229091 488.680727 488.657455a62.464 62.464 0 0 1-62.533818 62.394182z" fill="#9E9E9E" opacity=".8" p-id="2512"></path></svg>