<?xml version="1.0" encoding="UTF-8"?>
<svg width="26px" height="26px" viewBox="0 0 26 26" version="1.1" xmlns="http://www.w3.org/2000/svg" xmlns:xlink="http://www.w3.org/1999/xlink">
    <!-- Generator: Sketch 57.1 (83088) - https://sketch.com -->
    <title>手机号</title>
    <desc>Created with Sketch.</desc>
    <g id="家政人员2" stroke="none" stroke-width="1" fill="none" fill-rule="evenodd">
        <g id="手机" transform="translate(4.000000, 1.000000)" fill="#2999FF" fill-rule="nonzero">
            <path d="M12.0212054,24 L6.30691964,24 C2.8354155,24 0.0212053594,21.1857899 0.0212053594,17.7142857 L0.0212053594,6.28571428 C0.0212053594,2.81421014 2.8354155,0 6.30691964,0 L12.0212054,0 C15.4927095,0 18.3069196,2.81421014 18.3069196,6.28571428 L18.3069196,17.7142857 C18.3069196,21.1857899 15.4927095,24 12.0212054,24 Z M6.30691964,1.14285715 C3.46659808,1.14285715 1.16406251,3.44539272 1.16406251,6.28571428 L1.16406251,17.7142857 C1.16406251,20.5546073 3.46659808,22.8571429 6.30691964,22.8571429 L12.0212054,22.8571429 C14.8615269,22.8571429 17.1640625,20.5546073 17.1640625,17.7142857 L17.1640625,6.28571428 C17.1640625,3.44539272 14.8615269,1.14285715 12.0212054,1.14285715 L6.30691964,1.14285715 Z" id="形状"></path>
            <path d="M8.02120535,18.8571429 C8.02120535,19.4883254 8.53287993,20 9.1640625,20 C9.79524507,20 10.3069196,19.4883254 10.3069196,18.8571429 C10.3069196,18.2259603 9.79524507,17.7142857 9.1640625,17.7142857 C8.53287993,17.7142857 8.02120535,18.2259603 8.02120535,18.8571429 L8.02120535,18.8571429 Z" id="路径"></path>
        </g>
    </g>
</svg>