<?xml version="1.0" encoding="UTF-8"?>
<svg width="60px" height="60px" viewBox="0 0 60 60" version="1.1" xmlns="http://www.w3.org/2000/svg" xmlns:xlink="http://www.w3.org/1999/xlink">
    <!-- Generator: Sketch 57.1 (83088) - https://sketch.com -->
    <title>编组 4</title>
    <desc>Created with Sketch.</desc>
    <g id="家政人员2" stroke="none" stroke-width="1" fill="none" fill-rule="evenodd">
        <g id="首页2" transform="translate(-460.000000, -505.000000)">
            <g id="编组-4" transform="translate(460.000000, 505.000000)">
                <circle id="椭圆形" fill="#1882E4" cx="30" cy="30" r="30"></circle>
                <g id="箭头" transform="translate(30.000000, 30.000000) rotate(-90.000000) translate(-30.000000, -30.000000) translate(20.000000, 16.000000)" fill="#FFFFFF" fill-rule="nonzero">
                    <path d="M9.93303571,0.729910714 C10.6473214,0.729910714 11.2473214,1.32991071 11.2473214,2.04419643 L11.2473214,25.6441964 C11.2473214,26.3584821 10.6473214,26.9584821 9.93303571,26.9584821 C9.21875,26.9584821 8.61875,26.3584821 8.61875,25.6441964 L8.61875,2.015625 C8.61875,1.30133929 9.21875,0.729910714 9.93303571,0.729910714 Z" id="路径"></path>
                    <path d="M9.93303571,0.0156249994 C11.01875,0.0156249994 11.9616071,0.958482142 11.9616071,2.04419643 L11.9616071,25.6441964 C11.9616071,26.7299107 11.01875,27.6727679 9.93303571,27.6727679 C8.84732143,27.6727679 7.90446429,26.7299107 7.90446429,25.6441964 L7.90446429,2.015625 C7.90446429,0.901339286 8.81875,0.0156249994 9.93303571,0.0156249994 Z M9.93303571,26.2441964 C10.2473214,26.2441964 10.5330357,25.9584821 10.5330357,25.6441964 L10.5330357,2.04419643 C10.5330357,1.72991071 10.2473214,1.44419643 9.93303571,1.44419643 C9.61875,1.44419643 9.33303571,1.70133929 9.33303571,2.015625 L9.33303571,25.6441964 C9.33303571,25.9584821 9.61875,26.2441964 9.93303571,26.2441964 L9.93303571,26.2441964 Z" id="形状"></path>
                    <path d="M2.04732143,16.4727679 C2.39017857,16.4727679 2.70446429,16.5870536 2.96160714,16.8441964 L9.93303571,23.815625 L16.8758929,16.8727679 C17.3901786,16.3584821 18.21875,16.3584821 18.7330357,16.8727679 C19.2473214,17.3870536 19.2473214,18.215625 18.7330357,18.7299107 L10.8473214,26.615625 C10.3330357,27.1299107 9.50446429,27.1299107 8.99017857,26.615625 L1.13303571,18.7299107 C0.61875,18.215625 0.61875,17.3870536 1.13303571,16.8727679 C1.39017857,16.615625 1.70446429,16.4727679 2.04732143,16.4727679 Z" id="路径"></path>
                    <path d="M2.04732143,15.7584821 C2.59017857,15.7584821 3.07589286,15.9584821 3.47589286,16.3299107 L9.93303571,22.815625 L16.3616071,16.3584821 C17.1616071,15.5584821 18.4473214,15.5584821 19.21875,16.3584821 C19.5901786,16.7299107 19.81875,17.2441964 19.81875,17.7870536 C19.81875,18.3299107 19.61875,18.8441964 19.21875,19.215625 L11.3616071,27.1299107 C10.5616071,27.9299107 9.27589286,27.9299107 8.50446429,27.1299107 L0.647321429,19.2441964 C-0.152678571,18.4441964 -0.152678571,17.1584821 0.647321429,16.3870536 C1.01875,15.9584821 1.50446429,15.7584821 2.04732143,15.7584821 L2.04732143,15.7584821 Z M9.93303571,24.815625 L2.44732143,17.3299107 C2.33303571,17.215625 2.21875,17.1584821 2.04732143,17.1584821 C1.90446429,17.1584821 1.76160714,17.215625 1.64732143,17.3584821 C1.41875,17.5870536 1.41875,17.9584821 1.64732143,18.215625 L9.50446429,26.1013393 C9.73303571,26.3299107 10.1044643,26.3299107 10.3616071,26.1013393 L18.21875,18.215625 C18.3330357,18.1013393 18.3901786,17.9584821 18.3901786,17.7870536 C18.3901786,17.615625 18.3330357,17.4727679 18.21875,17.3584821 C17.9901786,17.1299107 17.61875,17.1299107 17.3616071,17.3584821 L9.93303571,24.815625 L9.93303571,24.815625 Z" id="形状"></path>
                </g>
            </g>
        </g>
    </g>
</svg>