<?xml version="1.0" encoding="UTF-8"?>
<svg width="26px" height="26px" viewBox="0 0 26 26" version="1.1" xmlns="http://www.w3.org/2000/svg" xmlns:xlink="http://www.w3.org/1999/xlink">
    <!-- Generator: Sketch 57.1 (83088) - https://sketch.com -->
    <title>验证码</title>
    <desc>Created with Sketch.</desc>
    <g id="家政人员2" stroke="none" stroke-width="1" fill="none" fill-rule="evenodd">
        <g id="验证码" transform="translate(2.000000, 3.000000)" fill="#2999FF" fill-rule="nonzero">
            <path d="M1.42952128,12.840758 L1.42952128,17.0351285 C1.42952128,17.8191489 2.0639406,18.4535683 2.84796099,18.4535683 L19.8692376,18.4535683 C20.653258,18.4535683 21.2876773,17.8191489 21.2876773,17.0351285 L21.2876773,12.8518395 L22.706117,12.8518395 L22.706117,17.0351285 C22.706117,18.6031693 21.4372784,19.872008 19.8692376,19.872008 L2.84796099,19.872008 C1.27992021,19.872008 0.0110815603,18.6031693 0.0110815603,17.0351285 L0.0110815603,12.840758 L1.42952128,12.840758 L1.42952128,12.840758 Z M21.2876773,7.16145833 L21.2876773,2.85073138 C21.2876773,2.06671099 20.653258,1.43229167 19.8692376,1.43229167 L2.84796099,1.43229167 C2.0639406,1.43229167 1.42952128,2.06671099 1.42952128,2.85073138 L1.42952128,7.11990248 L0.0110815603,7.11990248 L0.0110815603,2.85073138 C0.0110815603,1.2826906 1.27992021,0.0138519504 2.84796099,0.0138519504 L19.8692376,0.0138519504 C21.4372784,0.0138519504 22.706117,1.2826906 22.706117,2.85073138 L22.706117,7.16422872 L21.2876773,7.16145833 L21.2876773,7.16145833 Z" id="形状"></path>
            <path d="M4.26640071,9.94292996 C4.26640071,10.7263126 4.9014578,11.3613697 5.68484043,11.3613697 C6.46822305,11.3613697 7.10328014,10.7263126 7.10328014,9.94292996 C7.10328014,9.15954734 6.46822305,8.52449025 5.68484043,8.52449025 C4.9014578,8.52449025 4.26640071,9.15954734 4.26640071,9.94292996 Z" id="路径"></path>
            <path d="M9.94015957,9.94292996 C9.94015957,10.7263126 10.5752167,11.3613697 11.3585993,11.3613697 C12.1419819,11.3613697 12.777039,10.7263126 12.777039,9.94292996 C12.777039,9.43617025 12.506686,8.96790495 12.0678192,8.71452509 C11.6289524,8.46114522 11.0882462,8.46114522 10.6493794,8.71452509 C10.2105126,8.96790495 9.94015957,9.43617025 9.94015957,9.94292996 L9.94015957,9.94292996 Z" id="路径"></path>
            <path d="M15.6139184,9.94292996 C15.6139184,10.7263126 16.2489755,11.3613697 17.0323582,11.3613697 C17.8157408,11.3613697 18.4507979,10.7263126 18.4507979,9.94292996 C18.4507979,9.15954734 17.8157408,8.52449025 17.0323582,8.52449025 C16.2489755,8.52449025 15.6139184,9.15954734 15.6139184,9.94292996 L15.6139184,9.94292996 Z" id="路径"></path>
        </g>
    </g>
</svg>