<svg t="1574070713868" class="icon" viewBox="0 0 1024 1024" version="1.1" xmlns="http://www.w3.org/2000/svg" p-id="5414" width="48" height="48"><path d="M316.992 992H176A144.16 144.16 0 0 1 32 848v-672C32 96.608 96.608 32 176 32h504c79.392 0 144 64.608 144 144v159.136h-48V176c0-52.928-43.072-96-96-96H176c-52.928 0-96 43.072-96 96v672c0 52.928 43.072 96 96 96h140.992V992z" fill="#2999FF" p-id="5415"></path><path d="M392 260H176a24 24 0 0 1 0-48h216a24 24 0 1 1 0 48zM224 500H176a24 24 0 1 1 0-48H224a24 24 0 1 1 0 48zM316.928 992a24 24 0 0 1-23.104-30.464l59.392-212.16a23.904 23.904 0 0 1 6.144-10.496l407.296-407.264a131.168 131.168 0 0 1 93.344-38.688c35.264 0 68.384 13.76 93.312 38.688A131.104 131.104 0 0 1 992 424.928a131.168 131.168 0 0 1-38.688 93.376L546.048 925.568a24.032 24.032 0 0 1-10.496 6.144l-212.16 59.392a23.552 23.552 0 0 1-6.464 0.896z m80.832-223.616l-46.208 164.992 164.992-46.208L919.36 484.352c15.872-15.872 24.608-36.96 24.608-59.424 0-22.4-8.736-43.52-24.64-59.392a83.36 83.36 0 0 0-59.36-24.608c-22.432 0-43.52 8.736-59.424 24.64L397.76 768.352z" fill="#2999FF" p-id="5416"></path><path d="M893.952 567.744a23.904 23.904 0 0 1-16.96-7.04l-152.736-152.736a24 24 0 1 1 33.92-33.92l152.736 152.704a24 24 0 0 1-16.96 40.96zM554.528 907.168a23.904 23.904 0 0 1-16.96-7.04l-152.736-152.736a24 24 0 1 1 33.92-33.92l152.736 152.736a24 24 0 0 1-16.96 40.96z" fill="#2999FF" p-id="5417"></path></svg>