<svg t="1574070748844" class="icon" viewBox="0 0 1024 1024" version="1.1" xmlns="http://www.w3.org/2000/svg" p-id="5797" width="48" height="48"><path d="M778.24 594.688l-350.176-352 11.552-13.984c25.984-31.552 56.128-55.04 89.536-69.792a225.088 225.088 0 0 1 91.584-18.848c60.832 0 112.672 22.08 136.704 34.272l140.576-142.304 89.664 91.2-143.84 143.232c54.336 94.08 39.488 173.504 16.64 224.512-25.76 57.344-66.464 90.88-68.192 92.256l-14.08 11.456zM482.528 240.64l297.44 299.008a239.104 239.104 0 0 0 44.544-66.464c28.32-64.256 20.64-131.2-22.848-198.944l-8.736-13.6 138.304-137.696-33.28-33.856-133.92 135.552-13.568-8.448c-0.544-0.352-59.2-36.064-129.728-36.064-53.44 0-99.872 20.32-138.24 60.512z m-32 742.24c-35.456 0-76.8-18.368-122.784-54.592l-0.896-0.672-0.8-0.8-235.328-231.936-0.32-0.352c-0.64-0.704-15.936-17.408-30.56-40.96-20.704-33.376-29.824-63.552-27.104-89.696 2.336-22.72 13.92-42.176 33.44-56.224L395.84 255.52l371.456 366.08-244.32 322.272c-5.056 8.576-26.24 39.008-72.48 39.008z m-97.152-85.376c47.808 37.44 79.2 45.312 97.152 45.312 27.648 0 37.664-18.656 37.76-18.88l0.832-1.664 225.056-296.864-321.6-316.928-302.592 231.36-0.256 0.224c-10.496 7.488-15.936 16.352-17.152 27.904-3.68 34.976 32.384 83.04 47.008 99.104l233.792 230.4z" fill="#2999FF" p-id="5798"></path><path d="M229.12 553.92l29.056 27.52-122.368 129.216-29.088-27.52L229.12 553.92z m212.096 204.768l27.648 28.96-130.272 124.352-27.68-28.992 130.304-124.32z" fill="#2999FF" p-id="5799"></path></svg>