<svg t="1574070757567" class="icon" viewBox="0 0 1024 1024" version="1.1" xmlns="http://www.w3.org/2000/svg" p-id="5924" width="48" height="48"><path d="M512.192 927.616c-11.52 0-22.56-4.576-30.72-12.736L115.424 548.8a283.84 283.84 0 0 1 239.904-481.984 24.224 24.224 0 0 1-6.72 47.968A235.84 235.84 0 0 0 149.44 514.944l362.752 362.752 362.752-362.752A236.16 236.16 0 0 0 540.992 180.96l-218.56 218.816a24 24 0 1 1-33.824-34.08l218.56-218.56a284.8 284.8 0 0 1 401.856 0 284.8 284.8 0 0 1 0 401.856L542.912 914.88c-8.16 8.16-19.2 12.736-30.72 12.736z" fill="#2999FF" p-id="5925"></path></svg>