<svg t="1574070725346" class="icon" viewBox="0 0 1024 1024" version="1.1" xmlns="http://www.w3.org/2000/svg" p-id="5542" width="48" height="48"><path d="M711.04 75.104A478.336 478.336 0 0 0 512 32C246.912 32 32 246.912 32 512c0 265.088 214.912 480 480 480 265.088 0 480-214.912 480-480a476.832 476.832 0 0 0-47.84-209.12 32 32 0 0 0-57.6 27.936c27.392 56.448 41.6 118.4 41.44 181.184 0 229.76-186.24 416-416 416S96 741.76 96 512 282.24 96 512 96c60.352 0 118.816 12.832 172.48 37.312a32 32 0 0 0 26.56-58.24v0.032z" fill="#2999FF" p-id="5543"></path><path d="M800 192a32 32 0 1 0 64 0 32 32 0 0 0-64 0zM464 272v288a32 32 0 0 0 64 0v-288a32 32 0 0 0-64 0z" fill="#2999FF" p-id="5544"></path><path d="M753.888 535.072h-256a32 32 0 1 0 0 64h256a32 32 0 0 0 0-64z" fill="#2999FF" p-id="5545"></path></svg>