<svg t="1574070773978" class="icon" viewBox="0 0 1024 1024" version="1.1" xmlns="http://www.w3.org/2000/svg" p-id="6050" width="48" height="48"><path d="M959.04 404.64l29.28-1.92V256.512a128.128 128.128 0 0 0-127.68-127.68H159.872a128.128 128.128 0 0 0-127.68 127.68v145.216l24.384 5.856c47.744 11.68 81.856 53.6 81.856 103.296 0 49.728-33.12 91.616-81.856 103.328l-24.384 5.824v124.768a128.128 128.128 0 0 0 127.68 127.68h700.768a128.128 128.128 0 0 0 127.68-127.68v-125.728l-29.248-1.92c-54.592-3.936-97.472-50.72-97.472-106.24a104.192 104.192 0 0 1 97.472-106.24z m-34.08 269.984v69.184c0 35.104-28.256 63.36-63.36 63.36H160.864a63.232 63.232 0 0 1-63.36-63.36V667.84a169.152 169.152 0 0 0 106.24-157.888c0-70.176-42.88-131.584-106.24-157.888V254.56c-0.96-34.112 28.256-63.36 63.36-63.36h700.736c34.112 0 63.36 29.248 63.36 64.32v90.656c-73.088 19.52-127.68 86.72-127.68 164.704 0 76.992 53.6 144.256 127.68 163.744z" fill="#2999FF" p-id="6051"></path><path d="M595.52 340.32h63.36v318.72h-63.36z" fill="#2999FF" p-id="6052"></path></svg>