<svg t="1574070739201" class="icon" viewBox="0 0 1024 1024" version="1.1" xmlns="http://www.w3.org/2000/svg" p-id="5670" width="48" height="48"><path d="M509.504 584.608a81.6 81.6 0 0 1-29.952-5.28L55.712 406.976c-14.688-5.952-23.488-17.44-23.552-30.72-0.096-13.312 8.608-24.896 23.232-31.04l427.84-179.52c10.624-4.48 21.984-5.408 29.632-5.408 7.616 0 18.944 0.96 29.504 5.344l421.12 176.032c14.144 5.888 22.944 17.248 23.552 30.336 0.576 13.12-7.136 25.184-20.672 32.384l-1.056 0.544-1.12 0.48-425.76 174.24-0.192 0.064a80.928 80.928 0 0 1-28.736 4.896zM108.512 375.808l389.44 158.368c1.92 0.768 6.08 1.664 11.552 1.664 5.12 0 8.96-0.768 10.848-1.472l392.96-160.832-389.76-162.88a30.88 30.88 0 0 0-10.688-1.6 31.04 31.04 0 0 0-10.784 1.6l-393.6 165.152z" fill="#2999FF" p-id="5671"></path><path d="M911.328 541.984c0 12.096 7.808 28.064 17.28 35.52l7.456 5.824a18.496 18.496 0 0 1 1.44 28.64l-24.256 23.328a24.864 24.864 0 0 1-32.512 0.96l-27.328-23.168c-9.184-7.808-8.864-20.16 0.736-27.424l9.536-7.2c9.6-7.264 17.44-23.136 17.44-35.232V441.28c0-12.096 38.336-21.152 27.136-16.768l3.072 117.472zM513.92 861.888c-192.448 0-281.632-91.136-285.344-95.008-13.184-13.824-22.784-37.76-22.784-56.928V519.36h48.768v190.624c0 6.56 4.736 18.432 9.216 23.2 0.896 0.928 20.704 20.576 60.416 39.968 37.44 18.24 100.672 40 189.76 40 82.176 0 141.6-21.6 176.96-39.744 38.4-19.68 57.632-39.68 57.824-39.872 4.448-4.736 9.216-16.896 9.216-23.552v-188.16h48.768v188.16c0 19.072-9.44 43.008-22.4 56.928-3.616 3.84-90.784 95.008-270.4 95.008z" fill="#2999FF" p-id="5672"></path></svg>