<svg t="1574070039310" class="icon" viewBox="0 0 1024 1024" version="1.1" xmlns="http://www.w3.org/2000/svg" p-id="2736" width="48" height="48"><path d="M838.4 955.712h-210.56a23.456 23.456 0 1 1 0-46.912h210.56c38.752 0 70.4-31.648 70.4-70.4v-187.744a23.456 23.456 0 1 1 46.912 0V838.4a117.44 117.44 0 0 1-117.312 117.312z m93.856-563.2a23.456 23.456 0 0 1-23.456-23.456V181.344c0-38.784-31.648-70.4-70.4-70.4h-210.56a23.456 23.456 0 1 1 0-46.944h210.56a117.44 117.44 0 0 1 117.312 117.344v187.712a23.456 23.456 0 0 1-23.456 23.488z m-844.8 0A23.456 23.456 0 0 1 64 369.088V181.344A117.44 117.44 0 0 1 181.344 64h211.84a23.456 23.456 0 1 1 0 46.944h-211.84c-38.784 0-70.4 31.616-70.4 70.4v187.712a23.456 23.456 0 0 1-23.488 23.488z m305.728 563.2h-211.84A117.44 117.44 0 0 1 64 838.4v-187.744a23.456 23.456 0 1 1 46.944 0V838.4c0 38.752 31.616 70.4 70.4 70.4h211.84a23.456 23.456 0 1 1 0 46.912z" fill="#2999FF" p-id="2737"></path><path d="M756.608 783.2a249.824 249.824 0 0 0-169.408-195.104 187.712 187.712 0 0 0 110.4-170.976 187.936 187.936 0 0 0-187.744-187.744 187.936 187.936 0 0 0-187.712 187.744 188 188 0 0 0 110.4 171.072 249.504 249.504 0 0 0-169.408 194.88 23.424 23.424 0 0 0 19.104 27.168 23.68 23.68 0 0 0 27.168-19.104 203.072 203.072 0 0 1 200.448-168.192 202.88 202.88 0 0 1 200.48 168.32 23.456 23.456 0 0 0 46.272-8.064z m-387.52-366.08a140.8 140.8 0 1 1 281.536-0.032 140.8 140.8 0 0 1-281.568 0z" fill="#2999FF" p-id="2738"></path></svg>