<svg t="1574070195365" class="icon" viewBox="0 0 1024 1024" version="1.1" xmlns="http://www.w3.org/2000/svg" p-id="3755" width="48" height="48"><path d="M860.384 356.8c-55.232 55.232-134.08 86.784-212.992 78.912-31.552 0-71.008-7.904-102.56-7.904 15.776-31.552 23.68-63.104 39.456-86.752 23.68-63.104 63.104-110.464 118.336-149.888 55.2-23.68 118.304-39.456 181.44-31.552h47.328c-7.904 70.976-23.68 141.984-71.008 197.216z m-441.76 157.792c-86.784 0-165.664-31.552-228.768-94.656-23.68-23.68-47.36-47.36-63.104-78.88-15.776-31.552-23.68-63.104-31.552-94.688-7.904-31.552-7.904-55.2-7.904-86.752h39.456c78.88 0 157.76 23.68 220.864 63.104 31.552 23.68 63.136 47.328 78.912 86.784 15.776 31.552 31.552 63.104 39.424 94.656 7.904 31.552 7.904 63.104 7.904 102.56-15.776 7.872-31.552 7.872-55.232 7.872z m126.208 378.656V483.04c31.552 7.904 71.008 7.904 110.464 7.904 94.656 7.872 181.44-31.584 252.416-94.688 63.104-78.88 86.784-173.536 78.88-268.192v-15.776h-23.68c-94.624-15.776-189.312 0-276.064 31.552-71.008 39.424-126.24 102.528-149.888 173.536-15.776 15.776-23.68 31.552-23.68 39.456-7.872-23.68-23.68-55.232-31.552-78.88-23.68-39.456-63.104-71.04-102.56-102.56C308.192 128 213.536 96.512 126.752 96.512c-23.68 0-55.232 0-78.88 7.872l-15.776 7.904v15.776c0 39.424 0 78.88 7.872 126.208 7.904 39.456 15.776 78.88 31.552 110.432 15.776 39.456 47.36 71.008 78.88 102.56 39.456 39.456 94.688 63.104 149.888 86.784 39.456 15.776 78.88 23.68 118.336 23.68 23.68 0 39.456 0 63.104-7.904v323.424h63.104z" fill="#2999FF" p-id="3756"></path></svg>