<svg t="1574070061630" class="icon" viewBox="0 0 1024 1024" version="1.1" xmlns="http://www.w3.org/2000/svg" p-id="2863" width="48" height="48"><path d="M675.2 281.6h-25.6c-35.2 0-67.2-28.8-67.2-67.2V131.2c0-35.2 32-67.2 67.2-67.2h25.6c35.2 0 67.2 28.8 67.2 67.2v86.4c0 35.2-32 64-67.2 64z m-25.6-163.2c-6.4 0-12.8 6.4-12.8 12.8v86.4c0 6.4 6.4 12.8 12.8 12.8h25.6c6.4 0 12.8-6.4 12.8-12.8V131.2c0-6.4-6.4-12.8-12.8-12.8h-25.6z m-300.8 163.2h-25.6c-38.4 0-67.2-28.8-67.2-64V131.2C256 96 284.8 64 323.2 64h25.6c35.2 0 64 32 64 67.2v86.4c0 35.2-28.8 64-64 64z m-25.6-163.2c-6.4 0-12.8 6.4-12.8 12.8v86.4c0 6.4 6.4 12.8 12.8 12.8h25.6c6.4 0 12.8-6.4 12.8-12.8V131.2c0-6.4-6.4-12.8-12.8-12.8h-25.6z" fill="#2999FF" p-id="2864"></path><path d="M579.2 956.8H172.8c-57.6 0-105.6-48-105.6-105.6V252.8c0-57.6 48-105.6 105.6-105.6h112c16 0 25.6 12.8 25.6 25.6 0 16-12.8 25.6-25.6 25.6H172.8c-32 3.2-54.4 25.6-54.4 54.4v595.2c0 28.8 22.4 54.4 54.4 54.4h409.6c6.4 0 12.8 3.2 19.2 6.4 6.4 6.4 6.4 12.8 6.4 19.2 0 6.4-3.2 12.8-6.4 19.2-6.4 6.4-12.8 9.6-22.4 9.6z" fill="#2999FF" p-id="2865"></path><path d="M464 956.8h-73.6c-16 0-25.6-12.8-25.6-25.6 0-16 12.8-25.6 25.6-25.6h73.6c6.4 0 12.8 3.2 19.2 6.4 6.4 6.4 6.4 12.8 6.4 19.2 0 6.4-3.2 12.8-6.4 19.2-3.2 3.2-12.8 6.4-19.2 6.4z m368 0h-288c-6.4 0-12.8-3.2-19.2-6.4-6.4-6.4-6.4-12.8-6.4-19.2 0-6.4 3.2-12.8 6.4-19.2 6.4-6.4 12.8-6.4 19.2-6.4h288c28.8 0 54.4-22.4 54.4-54.4V768c0-6.4 3.2-12.8 6.4-19.2 6.4-6.4 12.8-6.4 19.2-6.4 6.4 0 12.8 3.2 19.2 6.4 6.4 6.4 6.4 12.8 6.4 19.2v83.2c3.2 57.6-44.8 105.6-105.6 105.6z m80-358.4c-6.4 0-12.8-3.2-19.2-6.4s-6.4-12.8-6.4-19.2v-320c0-28.8-22.4-54.4-54.4-54.4h-118.4c-6.4 0-12.8-3.2-19.2-6.4-6.4-6.4-6.4-12.8-6.4-19.2 0-6.4 3.2-12.8 6.4-19.2 6.4-6.4 12.8-6.4 19.2-6.4H832c57.6 0 105.6 48 105.6 105.6v316.8c0 6.4-3.2 12.8-6.4 19.2-6.4 6.4-12.8 9.6-19.2 9.6zM611.2 201.6h-224c-6.4 0-12.8-3.2-19.2-9.6-6.4-3.2-6.4-12.8-6.4-19.2 0-6.4 3.2-12.8 6.4-19.2 6.4-6.4 12.8-6.4 19.2-6.4h224c6.4 0 12.8 3.2 19.2 6.4 6.4 6.4 6.4 12.8 6.4 19.2 0 16-12.8 28.8-25.6 28.8z m-169.6 508.8c-6.4 0-12.8-3.2-19.2-6.4l-131.2-128c-6.4-6.4-6.4-12.8-6.4-19.2 0-6.4 3.2-12.8 6.4-19.2 6.4-6.4 12.8-6.4 19.2-6.4 6.4 0 12.8 3.2 19.2 6.4l131.2 131.2c6.4 6.4 6.4 12.8 6.4 19.2 0 6.4-3.2 12.8-6.4 19.2-6.4 3.2-12.8 6.4-19.2 3.2z" fill="#2999FF" p-id="2866"></path><path d="M448 707.2c-12.8 0-22.4-6.4-25.6-19.2-3.2-9.6 0-22.4 6.4-28.8l272-227.2c6.4-6.4 16-6.4 25.6-3.2 9.6 3.2 16 9.6 16 19.2 3.2 9.6-3.2 19.2-9.6 25.6l-272 227.2c0 6.4-6.4 6.4-12.8 6.4z" fill="#2999FF" p-id="2867"></path></svg>