<svg t="1574070403443" class="icon" viewBox="0 0 1024 1024" version="1.1" xmlns="http://www.w3.org/2000/svg" p-id="4264" width="48" height="48"><path d="M536.512 102.336l384.288 182.24a61.248 61.248 0 0 1 0 110.656l-384.32 182.24a61.248 61.248 0 0 1-52.48 0l-384.32-182.24a61.248 61.248 0 0 1 0-110.656l384.32-182.24a61.248 61.248 0 0 1 52.48 0z m-22.528 47.424a8.736 8.736 0 0 0-7.488 0l-384.32 182.24a8.736 8.736 0 0 0 0 15.808l384.32 182.24c2.368 1.12 5.12 1.12 7.488 0l384.32-182.24a8.736 8.736 0 0 0 0-15.808L513.984 149.76z" fill="#2999FF" p-id="4265"></path><path d="M898.304 505.312l-384.32 182.24a8.736 8.736 0 0 1-7.488 0l-384.32-182.24a26.24 26.24 0 0 0-22.464 47.424l384.288 182.24c16.64 7.904 35.872 7.904 52.48 0l384.32-182.24a26.24 26.24 0 0 0-22.496-47.424z" fill="#2999FF" p-id="4266"></path><path d="M898.304 662.816l-384.32 182.24a8.736 8.736 0 0 1-7.488 0l-384.32-182.24a26.24 26.24 0 0 0-22.464 47.424l384.288 182.24c16.64 7.872 35.872 7.872 52.48 0l384.32-182.24a26.24 26.24 0 0 0-22.496-47.424z" fill="#2999FF" p-id="4267"></path></svg>