<svg t="1574070095798" class="icon" viewBox="0 0 1024 1024" version="1.1" xmlns="http://www.w3.org/2000/svg" p-id="3119" width="48" height="48"><path d="M508.8 675.2c-73.6 0-134.4-60.8-134.4-134.4s60.8-134.4 134.4-134.4 134.4 60.8 134.4 134.4c0 28.8-9.6 54.4-22.4 76.8-6.4 9.6-19.2 9.6-25.6 3.2-9.6-6.4-9.6-19.2-3.2-25.6 9.6-16 16-35.2 16-54.4 0-51.2-41.6-96-96-96s-96 41.6-96 96c0 51.2 41.6 96 96 96 9.6 0 16 0 25.6-3.2 9.6-3.2 19.2 3.2 22.4 12.8 3.2 9.6-3.2 19.2-12.8 22.4-12.8 3.2-25.6 6.4-38.4 6.4z" fill="#2999FF" p-id="3120"></path><path d="M947.2 560H624c-9.6 0-19.2-9.6-19.2-19.2s9.6-19.2 19.2-19.2h326.4c9.6 0 19.2 9.6 19.2 19.2s-9.6 19.2-22.4 19.2z m-553.6 0H70.4c-9.6 0-19.2-9.6-19.2-19.2s9.6-19.2 19.2-19.2h323.2c9.6 0 19.2 9.6 19.2 19.2s-9.6 19.2-19.2 19.2zM768 217.6c-9.6 0-19.2-9.6-19.2-19.2V140.8c0-25.6-6.4-38.4-48-38.4H320c-38.4 0-48 12.8-48 38.4v57.6c0 9.6-9.6 19.2-19.2 19.2s-19.2-9.6-19.2-19.2V140.8C233.6 105.6 246.4 64 320 64h380.8c70.4 0 86.4 41.6 86.4 76.8v57.6c0 9.6-9.6 19.2-19.2 19.2z" fill="#2999FF" p-id="3121"></path><path d="M892.8 905.6H128c-51.2 0-96-41.6-96-96V275.2c0-51.2 41.6-96 96-96h764.8c51.2 0 96 41.6 96 96v534.4c-3.2 51.2-44.8 96-96 96zM128 217.6c-32 0-57.6 25.6-57.6 57.6v534.4c0 32 25.6 57.6 57.6 57.6h764.8c32 0 57.6-25.6 57.6-57.6V275.2c0-32-25.6-57.6-57.6-57.6H128z" fill="#2999FF" p-id="3122"></path></svg>