<svg t="1574070143221" class="icon" viewBox="0 0 1024 1024" version="1.1" xmlns="http://www.w3.org/2000/svg" p-id="3247" width="48" height="48"><path d="M358.4 899.2H179.2c-32 0-57.6-28.8-57.6-60.8V185.6c0-32 25.6-60.8 57.6-60.8h601.6c32 0 57.6 28.8 57.6 60.8V352c0 16 12.8 32 28.8 32s28.8-16 28.8-32V185.6C896 118.4 844.8 64 780.8 64H179.2C115.2 64 64 118.4 64 185.6v649.6C64 905.6 115.2 960 179.2 960h182.4c16 0 28.8-12.8 28.8-32s-16-28.8-32-28.8z" fill="#2999FF" p-id="3248"></path><path d="M380.8 537.6H243.2c-19.2 0-38.4-16-38.4-38.4 0-19.2 16-38.4 38.4-38.4H384c19.2 0 38.4 16 38.4 38.4-3.2 22.4-19.2 38.4-41.6 38.4z m214.4-214.4h-352c-12.8 0-25.6-6.4-32-19.2-6.4-12.8-6.4-25.6 0-38.4 6.4-12.8 19.2-19.2 32-19.2h352c12.8 0 25.6 6.4 32 19.2 6.4 12.8 6.4 25.6 0 38.4-6.4 12.8-16 19.2-32 19.2z m99.2 76.8c-89.6 0-163.2 73.6-163.2 163.2s73.6 163.2 163.2 163.2 163.2-73.6 163.2-163.2c0-92.8-73.6-163.2-163.2-163.2z m0 272c-28.8 0-54.4-12.8-76.8-32-32-32-41.6-76.8-22.4-118.4 16-41.6 54.4-67.2 99.2-67.2 60.8 0 108.8 48 108.8 108.8 0 57.6-48 108.8-108.8 108.8z m153.6 70.4h-307.2c-60.8 0-108.8 48-108.8 108.8S480 960 540.8 960h307.2c60.8 0 108.8-48 108.8-108.8 0-57.6-48-108.8-108.8-108.8z m0 166.4h-307.2c-28.8 0-54.4-25.6-54.4-54.4S512 800 540.8 800h307.2c28.8 0 54.4 25.6 54.4 54.4s-22.4 54.4-54.4 54.4z" fill="#2999FF" p-id="3249"></path></svg>