<?xml version="1.0" encoding="UTF-8"?>
<svg width="35px" height="35px" viewBox="0 0 35 35" version="1.1" xmlns="http://www.w3.org/2000/svg" xmlns:xlink="http://www.w3.org/1999/xlink">
    <!-- Generator: Sketch 57.1 (83088) - https://sketch.com -->
    <title>关 闭</title>
    <desc>Created with Sketch.</desc>
    <g id="家政人员2" stroke="none" stroke-width="1" fill="none" fill-rule="evenodd">
        <g id="承诺书弹窗" transform="translate(-585.000000, -432.000000)" fill-rule="nonzero">
            <g id="关-闭" transform="translate(585.000000, 432.000000)">
                <path d="M0,17.5 C0,27.16 7.84,35 17.5,35 C27.16,35 35,27.16 35,17.5 C35,7.84 27.16,0 17.5,0 C7.84,0 0,7.84 0,17.5 Z" id="路径" fill="#C8C8C8"></path>
                <path d="M3.885,17.5 C3.885,25.025 9.975,31.115 17.5,31.115 C25.025,31.115 31.115,25.025 31.115,17.5 C31.115,9.975 25.025,3.885 17.5,3.885 C9.975,3.885 3.885,9.975 3.885,17.5 Z" id="路径" fill="#C8C8C8"></path>
                <path d="M24.6925,10.6225 C25.06,10.99 25.06,11.6375 24.6925,12.005 L12.32,24.3775 C11.9525,24.745 11.305,24.745 10.9375,24.3775 C10.57,24.01 10.57,23.3625 10.9375,22.995 L23.31,10.6225 C23.695,10.255 24.325,10.255 24.6925,10.6225 L24.6925,10.6225 Z" id="路径" fill="#FFFFFF"></path>
                <path d="M10.955,10.6225 C11.3225,10.255 11.97,10.255 12.3375,10.6225 L24.71,22.995 C25.0775,23.3625 25.0775,24.01 24.71,24.3775 C24.3425,24.745 23.695,24.745 23.3275,24.3775 L10.955,12.005 C10.5875,11.6375 10.5875,10.99 10.955,10.6225 Z" id="路径" fill="#FFFFFF"></path>
            </g>
        </g>
    </g>
</svg>