<svg t="1574070156686" class="icon" viewBox="0 0 1024 1024" version="1.1" xmlns="http://www.w3.org/2000/svg" p-id="3374" width="48" height="48"><path d="M496 499.2c-121.6 0-217.6-96-217.6-217.6s96-217.6 217.6-217.6 217.6 96 217.6 217.6-96 217.6-217.6 217.6z m0-387.2c-92.8 0-169.6 76.8-169.6 169.6s76.8 169.6 169.6 169.6 169.6-76.8 169.6-169.6c0-44.8-19.2-89.6-51.2-118.4-28.8-32-73.6-51.2-118.4-51.2zM96 934.4v-25.6c0-160 92.8-304 240-371.2s316.8-44.8 438.4 60.8c12.8 9.6 25.6 22.4 38.4 35.2l-35.2 32c-9.6-12.8-22.4-22.4-32-32-108.8-92.8-259.2-112-387.2-51.2s-211.2 188.8-211.2 329.6v22.4H96zM617.6 764.8h291.2c16 0 25.6 9.6 25.6 25.6s-9.6 25.6-25.6 25.6h-291.2c-16 0-25.6-9.6-25.6-25.6s9.6-25.6 25.6-25.6zM617.6 912h291.2c16 0 25.6 9.6 25.6 25.6s-9.6 25.6-25.6 25.6h-291.2c-16 0-25.6-9.6-25.6-25.6 0-19.2 9.6-25.6 25.6-25.6z" fill="#2999FF" p-id="3375"></path></svg>