<svg t="1574070163347" class="icon" viewBox="0 0 1024 1024" version="1.1" xmlns="http://www.w3.org/2000/svg" p-id="3500" width="48" height="48"><path d="M441.792 923.776c-88 0-175.968-33.152-243.52-100.736a342.4 342.4 0 0 1-100.736-243.52 342.4 342.4 0 0 1 100.736-243.552 342.4 342.4 0 0 1 243.52-100.736 342.4 342.4 0 0 1 243.552 100.736c133.888 133.888 133.888 353.216 0 487.072-66.304 67.584-155.552 100.736-243.52 100.736z m0-613.312a267.264 267.264 0 0 0-189.984 79.04A267.264 267.264 0 0 0 172.8 579.52c0 71.392 28.032 138.976 79.04 189.984 104.576 104.544 275.424 104.544 379.968 0 104.576-104.576 104.576-275.424 0-379.968a267.264 267.264 0 0 0-189.984-79.072z m443.744 59.936a37.568 37.568 0 0 1-38.24-38.272V174.08h-158.112a37.568 37.568 0 0 1-38.272-38.272c0-21.664 16.576-38.24 38.272-38.24h195.072c21.664 0 38.24 16.576 38.24 38.24v196.352c1.28 20.416-16.576 38.272-36.96 38.272z" fill="#2999FF" p-id="3501"></path><path d="M668.768 390.784c-10.208 0-19.136-3.84-26.784-11.456-15.296-15.296-15.296-39.52 0-53.568l216.768-216.768c15.296-15.296 39.52-15.296 53.568 0 15.296 15.296 15.296 39.52 0 53.568l-216.768 216.768c-7.68 7.648-16.576 11.456-26.784 11.456z" fill="#2999FF" p-id="3502"></path></svg>