<svg t="1574070180034" class="icon" viewBox="0 0 1024 1024" version="1.1" xmlns="http://www.w3.org/2000/svg" p-id="3627" width="48" height="48"><path d="M508.8 956.8C265.6 956.8 64 755.2 64 508.8S265.6 64 508.8 64s444.8 201.6 444.8 444.8-198.4 448-444.8 448z m0-48c220.8 0 400-179.2 400-400S729.6 112 508.8 112 112 291.2 112 508.8s179.2 400 396.8 400z" fill="#2999FF" p-id="3628"></path><path d="M297.6 675.2h422.4V384l-211.2-128-211.2 128v291.2z m211.2-473.6l259.2 153.6v364.8H252.8V355.2l256-153.6z" fill="#2999FF" p-id="3629"></path><path d="M416 464h188.8v44.8H416z" fill="#2999FF" p-id="3630"></path></svg>