<svg t="1574070211892" class="icon" viewBox="0 0 1024 1024" version="1.1" xmlns="http://www.w3.org/2000/svg" p-id="3881" width="48" height="48"><path d="M630.980923 984.615385h-225.043692a247.571692 247.571692 0 0 1-247.571693-247.571693V286.956308A247.571692 247.571692 0 0 1 405.937231 39.384615h225.043692a247.571692 247.571692 0 0 1 247.571692 247.571693v450.087384A247.571692 247.571692 0 0 1 630.941538 984.615385zM405.937231 84.401231a202.555077 202.555077 0 0 0-202.555077 202.555077v450.087384a202.555077 202.555077 0 0 0 202.555077 202.555077h225.043692a202.555077 202.555077 0 0 0 202.555077-202.555077V286.956308a202.555077 202.555077 0 0 0-202.555077-202.555077h-225.043692z" fill="#2999FF" p-id="3882"></path><path d="M473.442462 782.060308a45.016615 45.016615 0 1 0 90.03323 0 45.016615 45.016615 0 0 0-90.03323 0z" fill="#2999FF" p-id="3883"></path></svg>