<svg t="1574070338530" class="icon" viewBox="0 0 1024 1024" version="1.1" xmlns="http://www.w3.org/2000/svg" p-id="4008" width="48" height="48"><path d="M711.776 354.304H233.568a24.128 24.128 0 0 1 0-48.256h478.208a24.128 24.128 0 0 1 0 48.256zM456.32 706.496h-227.52c-10.72 0-19.328-10.72-19.328-24.064s8.64-24.128 19.296-24.128h227.616c10.72 0 19.296 10.784 19.296 24.128 0 13.28-8.64 24.064-19.296 24.064h-0.064z m46.4-176.096h-272c-11.776 0-21.312-10.72-21.312-24.128 0-13.28 9.536-24.064 21.312-24.064h272c11.84 0 21.344 10.72 21.344 24.064s-9.536 24.128-21.312 24.128z" fill="#2999FF" p-id="4009"></path><path d="M528.512 956.96h-314.56a117.664 117.664 0 0 1-117.344-117.376V181.472a117.632 117.632 0 0 1 117.344-117.312h517.344a117.6 117.6 0 0 1 117.44 117.376v255.328a24.128 24.128 0 0 1-48.256 0v-255.36a69.216 69.216 0 0 0-69.12-69.12H213.952c-37.952 0-69.12 30.88-69.12 69.12v658.304c0 38.016 30.944 69.248 69.184 69.248h314.24c13.376 0 24.16 10.72 24.16 24.064a23.584 23.584 0 0 1-23.84 23.84h-0.064z" fill="#2999FF" p-id="4010"></path><path d="M850.624 579.648c-42.24-9.984-142.496-33.184-162.048-33.184-19.52 0-119.36 23.264-161.376 33.184a25.504 25.504 0 0 0-19.616 24.864v144.992c0 147.168 166.24 201.536 173.312 203.744a26.144 26.144 0 0 0 15.424 0c7.104-2.208 173.984-56.576 173.984-203.744v-144.992a25.6 25.6 0 0 0-19.68-24.864z m-5.824 169.856c0 130.176-156.224 179.392-156.224 179.392s-155.488-49.28-155.488-179.328v-145.056s136.928-32.544 155.52-32.544c18.56 0 156.16 32.544 156.16 32.544V749.504z" fill="#2999FF" p-id="4011"></path><path d="M594.88 712.8a12.768 12.768 0 1 0-18.048 18.048l76.832 76.864a12.704 12.704 0 0 0 18.048 0l140-139.936a12.8 12.8 0 1 0-18.08-18.048l-130.88 130.944-67.936-67.84h0.064z" fill="#2999FF" p-id="4012"></path></svg>