<svg t="1574070358088" class="icon" viewBox="0 0 1024 1024" version="1.1" xmlns="http://www.w3.org/2000/svg" p-id="4137" width="48" height="48"><path d="M486.592 702.4a23.168 23.168 0 0 1-21.024-13.376l-69.984-148.8-26.624 66.4a23.136 23.136 0 1 1-43.584-1.568l-52.32-165.568-32.32 64.704a23.136 23.136 0 0 1-20.672 12.832H104.192a23.168 23.168 0 1 1 0-46.4H205.76l51.584-103.008a23.264 23.264 0 0 1 42.88 3.424l49.984 158.336 22.272-55.712a23.2 23.2 0 0 1 42.464-1.344l70.72 150.336 83.968-195.904a23.136 23.136 0 0 1 40.576-3.712l39.488 59.2h91.84a23.168 23.168 0 1 1 0 46.4h-104.288a22.88 22.88 0 0 1-19.264-10.368l-22.56-33.952-87.392 204a23.36 23.36 0 0 1-20.928 14.08h-0.512z" fill="#2999FF" p-id="4138"></path><path d="M510.4 916.832a22.88 22.88 0 0 1-10.464-2.464c-14.4-7.264-352.48-181.312-422.464-416.16a23.136 23.136 0 1 1 44.416-13.152c57.888 193.92 331.264 351.232 388.512 382.4 45.248-24.544 225.344-127.872 327.424-265.824 22.688-30.656 40.288-61.408 52.192-91.2 12.96-32.544 19.488-64.736 19.488-95.808 0-136.992-95.808-224.704-185.984-237.632-88.544-12.64-159.904 42.752-190.944 148.384a23.2 23.2 0 0 1-44.544 0c-31.04-105.632-102.304-161.12-190.848-148.384-90.176 12.928-185.952 100.64-185.952 237.632a23.168 23.168 0 1 1-46.4 0c0-163.104 116.288-267.776 225.728-283.52 75.392-10.752 167.04 18.016 219.744 123.744 52.704-105.728 144.32-134.624 219.744-123.744 109.44 15.744 225.728 120.416 225.728 283.52 0 37.088-7.68 75.072-22.784 112.96-13.344 33.568-32.928 67.744-57.984 101.6-123.328 166.72-344.736 280.416-354.048 285.184a23.616 23.616 0 0 1-10.56 2.464z" fill="#2999FF" p-id="4139"></path></svg>