<svg t="1574070421979" class="icon" viewBox="0 0 1024 1024" version="1.1" xmlns="http://www.w3.org/2000/svg" p-id="4392" width="48" height="48"><path d="M220.352 194.08c2.08 0 4.16 0.096 6.24 0.128l-6.24-0.128z" fill="#9B9DB1" p-id="4393"></path><path d="M490.048 849.12c-80.416-55.84-174.4-67.552-239.104-67.552-39.968 0-73.92 4.352-95.328 7.936a28.096 28.096 0 0 1-4.768 0.416c-17.44 0-31.616-15.904-31.616-35.424V635.52l6.4 1.76c6.56 1.856 12.288 2.72 17.92 2.72 2.08 0 4.032-0.224 6.016-0.416l5.536-0.512 0.832 5.568v103.808a614.624 614.624 0 0 1 95.008-7.456c91.392 0 174.592 21.6 241.312 62.464l0.32-478.752-2.464-2.464c-0.928-0.864-23.936-22.784-63.648-44.48a368.48 368.48 0 0 0-73.28-30.432A339.296 339.296 0 0 0 258.24 233.6c-33.92 0-68.384 5.248-102.4 15.584l0.128 144.544-5.856-0.96a161.28 161.28 0 0 0-25.824-2.336h-5.056V245.344c0-15.808 9.536-29.856 23.168-34.144a387.072 387.072 0 0 1 115.84-18.176c140.48 0 237.312 81.632 253.76 96.512 16.512-14.88 113.344-96.512 253.76-96.512 38.464 0 77.44 6.112 115.84 18.176 13.632 4.288 23.136 18.336 23.136 34.144V390.4h-5.056a156.48 156.48 0 0 0-25.792 2.368l-5.856 0.96v-144.64a352.832 352.832 0 0 0-102.304-15.52c-31.872 0-63.84 4.608-95.008 13.728-25.44 7.456-49.984 17.664-73.248 30.4-40 21.888-63.392 44.288-63.648 44.48l-2.464 2.464 0.32 478.752c66.72-40.864 149.952-62.432 241.344-62.432 38.784 0 72.224 3.84 94.976 7.456v-109.44l5.504 0.48c3.008 0.288 4.896 0.48 6.88 0.48 5.728 0 11.424-0.864 17.92-2.72l6.4-1.792v119.04c0 19.52-14.144 35.424-31.584 35.424a29.088 29.088 0 0 1-4.768-0.416 583.136 583.136 0 0 0-95.36-7.936c-64.704 0-158.72 11.712-239.104 67.52a36.544 36.544 0 0 1-20.864 6.656h-1.408a37.12 37.12 0 0 1-21.536-6.624z" fill="#2999FF" p-id="4394"></path><path d="M828.896 466.08l23.68 8.64-24.192 3.456c-0.416 13.12-0.48 26.144-0.16 39.136l19.392 8-19.04 2.688c0.576 13.824 1.568 27.584 2.944 41.344l16.8 3.808-16.128 3.104c1.024 9.824 2.336 19.744 3.776 29.568 13.312 3.872 52.768 17.472 82.464-9.6 34.08-30.912 51.104-94.048 32.832-147.296-15.328-44.768-90.88-26.464-119.424-19.52-1.344 12.192-2.304 24.448-2.944 36.672z m-757.44-17.12c-18.24 53.248-1.248 116.384 32.832 147.328 29.76 27.072 69.12 13.44 82.496 9.568 1.408-9.824 2.688-19.712 3.776-29.568l-16.16-3.104 16.832-3.808c1.344-13.76 2.336-27.52 2.88-41.344l-19.008-2.72 19.36-8c0.32-12.992 0.32-26.048-0.128-39.104l-24.192-3.456 23.68-8.608c-0.64-12.288-1.6-24.512-2.912-36.736-28.544-6.944-104.128-25.248-119.456 19.552z" fill="#2999FF" p-id="4395"></path></svg>