<svg t="1574070433844" class="icon" viewBox="0 0 1024 1024" version="1.1" xmlns="http://www.w3.org/2000/svg" p-id="4520" width="48" height="48"><path d="M408.48 64H213.248L64 225.28l14.848 192.384L584.64 946.752l371.36-393.28L408.448 64z m176.128 809.184L126.944 394.336l-12-151.36 120.224-129.472h154.208l495.136 440.672-299.904 319.04z" fill="#2999FF" p-id="4521"></path><path d="M306.624 205.44a92.672 92.672 0 1 0 0.128 185.344 92.672 92.672 0 0 0-0.128-185.312z m0 163.424a70.72 70.72 0 1 1 70.72-70.72 70.72 70.72 0 0 1-70.72 67.2v3.52z" fill="#2999FF" p-id="4522"></path></svg>