<svg t="1574070611304" class="icon" viewBox="0 0 1024 1024" version="1.1" xmlns="http://www.w3.org/2000/svg" p-id="4904" width="48" height="48"><path d="M951.296 406.784l-143.04-276.672a62.016 62.016 0 0 0-55.072-33.536H269.664c-23.2 0-44.416 12.896-55.04 33.536l-143.04 276.672a62.08 62.08 0 0 0 9.92 70.976l384.896 407.808c12.192 12.96 28.608 19.456 45.024 19.456s32.832-6.496 45.024-19.456L941.344 477.76a61.888 61.888 0 0 0 9.92-70.976zM511.424 843.104L126.528 435.296l143.04-276.768h483.616l143.04 276.768-384.8 407.808z" fill="#2999FF" p-id="4905"></path><path d="M724.96 404.032l-213.536 226.304-213.536-226.304a30.944 30.944 0 1 0-45.024 42.464l236.064 250.208a31.04 31.04 0 0 0 45.024 0l236.032-250.24a30.912 30.912 0 1 0-45.024-42.432z" fill="#2999FF" p-id="4906"></path></svg>