<svg t="1574070601697" class="icon" viewBox="0 0 1024 1024" version="1.1" xmlns="http://www.w3.org/2000/svg" p-id="4777" width="48" height="48"><path d="M840.96 925.536H211.904a66.496 66.496 0 0 1-66.368-59.968L96.64 385.12a66.816 66.816 0 0 1 66.368-73.504h726.88a66.816 66.816 0 0 1 66.4 73.504l-48.96 480.448a66.496 66.496 0 0 1-66.368 59.968z m-677.952-547.2l48.896 480.48H840.96l48.96-480.448H162.976z" fill="#2999FF" p-id="4778"></path><path d="M686.592 453.312a33.376 33.376 0 0 1-33.376-33.376V196.64c0-18.4-14.944-33.376-33.344-33.376h-186.88c-18.368 0-33.344 14.976-33.344 33.376v223.296a33.376 33.376 0 0 1-66.72 0V196.64a100.192 100.192 0 0 1 100.096-100.096h186.848a100.192 100.192 0 0 1 100.096 100.096v223.296c0 18.432-14.944 33.376-33.376 33.376zM726.624 708.672H326.272v50.048c0 18.432 14.944 33.344 33.344 33.344h333.664c18.432 0 33.344-14.912 33.344-33.344v-50.048z" fill="#2999FF" p-id="4779"></path></svg>