<svg t="1574070628115" class="icon" viewBox="0 0 1024 1024" version="1.1" xmlns="http://www.w3.org/2000/svg" p-id="5031" width="48" height="48"><path d="M173.248 138.816c0-31.456 30.496-56.96 68.064-56.96h275.744c37.056 0 67.2 25.6 67.2 56.96V844.8h48.64V276.512h160.992c31.488 0 56.992 25.632 56.992 56.992v502.528h48.64v-502.4c0-58.24-47.424-105.6-105.6-105.6h-161.184V138.816c0-28.8-12.384-55.68-34.88-75.712a121.344 121.344 0 0 0-80.928-30.016H241.312c-64.32 0-116.672 47.392-116.672 105.6v705.984h48.64V138.816zM64.96 885.376h893.12v48.608H64.96v-48.64z" fill="#2999FF" p-id="5032"></path><path d="M236.448 293.408h151.552v48.608H236.448v-48.64z m195.904-0.256h76.8v48.64h-76.8V293.12z m-195.904 164.32h151.552v48.608H236.448v-48.64z m195.904-0.256h76.8v48.64h-76.8v-48.64z m-195.904 155.2h151.552v48.64H236.448v-48.64z m195.904-0.352h76.8v48.608h-76.8v-48.64z m231.36-222.656h86.304v48.64h-86.272v-48.64z m111.456-0.128h43.776v48.64h-43.776v-48.64z m-111.424 151.808h86.272v48.608h-86.272v-48.64z m111.424-0.256h43.776v48.64h-43.776V540.8z m-111.424 154.336h86.272v48.64h-86.272v-48.64z m111.424-0.224h43.776v48.608h-43.776v-48.64z" fill="#2999FF" p-id="5033"></path></svg>