<svg t="1574070655052" class="icon" viewBox="0 0 1024 1024" version="1.1" xmlns="http://www.w3.org/2000/svg" p-id="5285" width="48" height="48"><path d="M350.944 453.76c19.328 6.272 17.76 5.184 26.784 8.064 11.2-37.024 27.84-57.792 70.976-68.8-3.2-9.28-4.992-14.88-8.544-23.488-47.104 7.584-72.864 34.752-89.216 84.192z" fill="#2999FF" p-id="5286"></path><path d="M511.2 287.04c-131.616 0-239.776 101.12-251.904 235.296a146.528 146.528 0 0 0-0.256 15.968c20.704 0.16 31.136 0.16 31.36 0 9.344-14.208 30.912-23.264 50.176-23.264 23.2 0 44.576 11.616 57.472 31.36 0.288 0.32 1.664 2.24 3.52 5.44h24.64c1.44-4.288 2.432-7.072 3.008-8.384a91.2 91.2 0 0 1 82.304-52.192c35.072 0 66.72 20 82.304 52.192 0.704 1.984 1.536 4.48 2.496 7.456h25.76l3.136-5.024a68.8 68.8 0 0 1 57.504-31.36c19.008 0 36.96 8.384 50.176 22.432 0.16 0.192 10.4 0.192 30.656 0 0.128-4.864 0-9.728-0.384-14.592-12.192-134.176-120.32-235.328-251.968-235.328z m170.656 191.2a102.432 102.432 0 0 0-70.176 27.328 125.632 125.632 0 0 0-100.48-50.304c-40.096 0-76.512 18.944-100.512 50.56a103.456 103.456 0 0 0-70.176-27.584 106.56 106.56 0 0 0-37.984 7.296c25.856-94.4 109.472-161.44 208.64-161.44 99.2 0 183.072 67.072 208.64 161.44a105.376 105.376 0 0 0-37.952-7.296z m-152.736-207.712V219.936h-35.84v50.56h35.84z" fill="#2999FF" p-id="5287"></path><path d="M587.52 656.576v18.112c0 18.112-14.784 32.768-33.056 32.768a32.704 32.704 0 0 1-32.768-32.224v-140.864H485.12v140.608c0 38.08 31.168 68.96 69.6 68.96 38.4 0 69.6-30.88 69.6-68.96v-18.368h-18.56l-18.24-0.032z" fill="#2999FF" p-id="5288"></path><path d="M511.232 64.704c-246.464 0-446.368 199.872-446.368 446.336S264.768 957.44 511.232 957.44s446.336-199.904 446.336-446.368S757.696 64.704 511.232 64.704z m0 853.888c-225.12 0-407.552-182.4-407.552-407.552 0-225.12 182.4-407.52 407.552-407.52 225.12 0 407.52 182.4 407.52 407.52 0 225.12-182.4 407.552-407.52 407.552z" fill="#2999FF" p-id="5289"></path></svg>