<svg t="1574070068869" class="icon" viewBox="0 0 1024 1024" version="1.1" xmlns="http://www.w3.org/2000/svg" p-id="2992" width="48" height="48"><path d="M479.296 251.84h-0.96c-93.056 0.608-163.36 73.632-163.36 170.24 0 47.456 16.96 91.04 47.936 122.592 30.976 31.936 73.6 49.952 120.736 50.432h2.464c45.6 0 88.704-17.92 121.216-49.92 33.44-33.472 52.416-78.016 51.84-125.472-1.056-95.648-78.08-167.84-179.872-167.84z m118.496 173.984c-0.96 60.192-51.136 109.92-111.328 109.92h-0.576c-30.72 0-59.264-12.16-80-33.216-20.704-21.12-31.776-51.136-31.328-82.464 1.536-61.728 48.64-108.384 110.272-108.384h1.536c31.808 0.608 60.64 12.16 81.376 33.248 19.904 20.256 30.624 49.216 30.048 80.896z" fill="#2999FF" p-id="2993"></path><path d="M802.144 195.68C749.376 124.48 680.48 74.56 601.6 49.856c-78.56-24.288-164.8-22.4-249.728 6.24-75.616 25.184-140.16 74.208-186.56 142.048a391.68 391.68 0 0 0-68.8 229.216c-1.92 83.744 25.664 161.984 84.928 239.936 52.768 68.8 107.648 137.12 161.376 203.68 16 19.296 31.904 39.808 47.456 59.136 30.048 37.344 61.6 56.16 93.536 56.768h0.576c30.976 0 61.6-17.44 90.688-52.8 69.856-84.32 150.784-182.208 225.824-281.152 47.936-63.488 74.208-144.992 74.208-228.736 0.224-83.04-25.568-164.576-72.928-228.512zM751.52 615.68c-51.136 71.872-107.424 141.248-162.816 208.128-19.2 23.68-39.552 49.248-58.752 73.408-14.976 17.92-30.4 27.68-44.8 27.68-13.408 0-26.464-8.256-38.944-23.68-14.048-16.864-27.456-35.584-41.472-53.376-62.656-77.024-128.16-156.992-188-238.976-30.72-42.432-67.04-107.424-59.264-181.632v-0.608c0-145.472 87.168-269.76 222.176-316.032a318.176 318.176 0 0 1 105.536-17.312c99.296 0 195.648 45.344 258.656 126.624 92.96 119.808 95.296 271.04 7.68 395.776z" fill="#2999FF" p-id="2994"></path></svg>