<svg t="1574070643017" class="icon" viewBox="0 0 1024 1024" version="1.1" xmlns="http://www.w3.org/2000/svg" p-id="5158" width="48" height="48"><path d="M211.36 120c-31.808 0-57.6 25.088-57.6 56v672c0 30.912 25.792 56 57.6 56h552.96c31.808 0 57.6-25.088 57.6-56v-672c0-30.912-25.792-56-57.6-56H211.36z m0-56h552.96c63.616 0 115.2 50.176 115.2 112v672c0 61.824-51.584 112-115.2 112H211.36c-63.616 0-115.2-50.176-115.2-112v-672c0-61.824 51.584-112 115.2-112z" fill="#2999FF" p-id="5159"></path><path d="M280.48 360.8h414.72c15.904 0 28.8-12.544 28.8-28a28.416 28.416 0 0 0-28.8-28H280.48a28.416 28.416 0 0 0-28.8 28c0 15.456 12.896 28 28.8 28z m0 179.2h414.72c15.904 0 28.8-12.544 28.8-28a28.416 28.416 0 0 0-28.8-28H280.48a28.416 28.416 0 0 0-28.8 28c0 15.456 12.896 28 28.8 28z m0 179.2h222.72c15.936 0 28.832-12.544 28.832-28a28.416 28.416 0 0 0-28.8-28h-222.72a28.416 28.416 0 0 0-28.832 28c0 15.456 12.896 28 28.8 28z" fill="#2999FF" p-id="5160"></path></svg>