<svg t="1575444725111" class="icon" viewBox="0 0 1024 1024" version="1.1" xmlns="http://www.w3.org/2000/svg" p-id="2349" width="16" height="16"><path d="M858.08 775.584a27.328 27.328 0 0 1-14.368-50.56l46.944-28.928a26.88 26.88 0 0 0 12.064-30.784 28.256 28.256 0 0 0-12.992-16.384 448.32 448.32 0 0 1-54.912-36.224 27.104 27.104 0 0 1-4.992-38.272 27.104 27.104 0 0 1 38.272-5.024c15.264 11.616 31.424 22.336 48.512 31.904a82.016 82.016 0 0 1 2.752 141.248l-46.944 28.928a26.88 26.88 0 0 1-14.336 4.096m-359.04 212.096a82.016 82.016 0 0 1-40.32-10.496L106.976 779.008a82.464 82.464 0 0 1-2.72-141.248l49.664-30.752a27.328 27.328 0 1 1 28.704 46.464l-49.664 30.752a28.032 28.032 0 0 0-9.6 9.824 27.552 27.552 0 0 0 10.496 37.344l351.744 198.208a27.104 27.104 0 0 0 27.776-0.704l97.76-60.352a27.328 27.328 0 1 1 28.928 46.464l-97.984 60.608a83.168 83.168 0 0 1-43.04 12.064m25.504-868.416a26.88 26.88 0 0 0-14.336 4.096l-377.28 232.832a27.328 27.328 0 0 0 0.896 47.168l351.776 198.176c8.64 4.8 19.36 4.576 27.776-0.672l377.28-232.832a30.304 30.304 0 0 0 9.568-9.792 26.432 26.432 0 0 0 2.496-20.736 28.032 28.032 0 0 0-12.992-16.64L537.984 122.688a28.032 28.032 0 0 0-13.44-3.424m-25.504 540.352a82.016 82.016 0 0 1-40.32-10.464L106.976 450.944a81.792 81.792 0 0 1-2.72-141.216l377.248-232.832a82.016 82.016 0 0 1 83.36-1.824L916.608 273.28a81.792 81.792 0 0 1 2.752 141.216l-377.28 233.056a83.168 83.168 0 0 1-43.04 12.064" fill="#2999FF" p-id="2350"></path><path d="M499.04 820.704a82.016 82.016 0 0 1-40.32-10.72L106.976 611.84a81.344 81.344 0 0 1-2.976-141.024l47.84-29.632a27.424 27.424 0 0 1 28.704 46.72l-47.808 29.376a25.728 25.728 0 0 0-9.344 9.792 26.432 26.432 0 0 0-2.528 20.736 26.88 26.88 0 0 0 12.992 16.416l351.744 198.176c8.64 4.992 19.328 4.8 27.776-0.448l377.28-232.832a27.328 27.328 0 0 0-0.928-47.136l-48.96-27.584a27.328 27.328 0 0 1-10.24-37.12 26.88 26.88 0 0 1 37.12-10.496l48.96 27.584a81.344 81.344 0 0 1 2.752 141.248l-377.28 232.8c-12.928 8-27.84 12.288-43.04 12.32" fill="#2999FF" p-id="2351"></path><path d="M796.8 454.4a26.656 26.656 0 0 1-13.696-3.68L354.368 204.704a27.328 27.328 0 1 1 27.36-47.392l428.736 246.048a27.328 27.328 0 0 1-13.664 51.008z m-305.056 96.576a25.728 25.728 0 0 1-14.336-4.352l-46.496-28.928a27.328 27.328 0 0 1-8.416-37.792 27.328 27.328 0 0 1 37.6-8.672l46.24 29.152c12.736 8.224 16.64 25.056 8.64 37.824a27.552 27.552 0 0 1-23.232 12.768z m261.76 176.768v143.296h-52.64a16.416 16.416 0 0 0-11.392 28.256l94.336 87.68 99.776-97.024a11.392 11.392 0 0 0 3.424-8 10.72 10.72 0 0 0-10.944-10.912h-67.648v-143.296a27.456 27.456 0 1 0-54.912 0z" fill="#2999FF" p-id="2352"></path></svg>