<svg t="1575444975470" class="icon" viewBox="0 0 1024 1024" version="1.1" xmlns="http://www.w3.org/2000/svg" p-id="2569" width="16" height="16"><path d="M698.464 428.032a26.976 26.976 0 0 0-38.176 0L514.88 573.44a5.216 5.216 0 0 1-7.04 0l-145.632-145.408a26.976 26.976 0 0 0-38.176 38.144l167.616 167.616a26.88 26.88 0 0 0 19.072 7.808h0.768a26.88 26.88 0 0 0 19.104-7.872l167.584-167.616a26.976 26.976 0 0 0 0.288-38.08z" fill="#2999FF" p-id="2570"></path><path d="M987.2 414.4a23.52 23.52 0 0 0-2.336-5.056l-173.216-300.064a25.408 25.408 0 0 0-2.752-3.744c-0.416-0.48-0.8-1.024-1.216-1.472a42.24 42.24 0 0 0-4.224-3.648 29.856 29.856 0 0 0-4.928-2.624l-1.6-0.48a31.264 31.264 0 0 0-3.68-1.056H229.248c-1.28 0.288-2.528 0.64-3.744 1.056L224 97.792a29.856 29.856 0 0 0-4.928 2.624l-0.864 0.768a26.208 26.208 0 0 0-3.36 2.88c-0.448 0.448-0.8 0.992-1.216 1.504a25.408 25.408 0 0 0-2.304 3.072l-0.448 0.64-173.216 299.936a23.232 23.232 0 0 0-2.24 5.056 26.752 26.752 0 0 0 4.832 31.296l451.68 451.68a27.04 27.04 0 0 0 19.104 7.872h0.48a26.88 26.88 0 0 0 19.008-7.872l451.712-451.68a26.88 26.88 0 0 0 4.992-31.136z m-469.152 419.2a9.504 9.504 0 0 1-13.6 0L95.488 424.64a5.12 5.12 0 0 1-0.832-6.208L249.6 149.792h522.88l154.912 268.64a4.992 4.992 0 0 1-0.832 6.208L518.08 833.6z" fill="#2999FF" p-id="2571"></path></svg>