<svg t="1575444993835" class="icon" viewBox="0 0 1024 1024" version="1.1" xmlns="http://www.w3.org/2000/svg" p-id="2788" width="16" height="16"><path d="M64 32h896v896H64z" fill="#FFFFFF" fill-opacity=".01" p-id="2789"></path><path d="M413.568 88.256l265.472 0.096-121.568 265.408 0.096 0.032a27.712 27.712 0 0 0-2.784 12.704 27.968 27.968 0 0 0 27.776 26.88h0.224c0.448 0 0.768 0.192 1.184 0.192 0.256 0 0.48-0.192 0.736-0.192l162.272 1.696-334.4 397.952 57.792-251.36-0.32-0.064c0.512-2.368 1.312-4.768 1.216-7.296a28.128 28.128 0 0 0-29.216-27.04c-0.256 0-0.48 0.192-0.736 0.192H234.08l179.52-419.264v0.064z m-220.8 475.264c0.32 0 0.512-0.16 0.8-0.192h214.528l-76.064 330.304h0.32c-0.512 2.432-1.28 4.8-1.152 7.328a28.16 28.16 0 0 0 29.216 27.072 27.712 27.712 0 0 0 20.224-10.24l445.92-530.56 1.12-1.216 0.192-0.32a27.872 27.872 0 0 0 6.656-19.04 27.968 27.968 0 0 0-27.776-26.848h-0.224c-0.416 0-0.768-0.192-1.152-0.192-0.32 0-0.512 0.16-0.704 0.16l-178.464-1.856 121.76-265.92h-0.096c1.92-3.936 2.88-8.32 2.784-12.736a28.128 28.128 0 0 0-29.216-27.008c-0.256 0-0.48 0.192-0.8 0.192l-325.44-0.096c-0.384 0-0.736-0.192-1.12-0.192a27.936 27.936 0 0 0-24.608 17.12l-0.096 0.128-0.64 1.504-202.688 473.472a27.968 27.968 0 0 0-2.432 12.16c0.608 15.52 13.696 27.584 29.216 26.976h-0.064z" fill="#2999FF" p-id="2790"></path></svg>