<svg t="1574069089801" class="icon" viewBox="0 0 1024 1024" version="1.1" xmlns="http://www.w3.org/2000/svg" p-id="2347" width="48" height="48"><path d="M312.195122 62.439024h399.609756c123.629268 0 224.780488 101.15122 224.780488 224.780488v399.609756c0 123.629268-101.15122 224.780488-224.780488 224.780488H312.195122c-123.629268 0-224.780488-101.15122-224.780488-224.780488V287.219512c0-123.629268 101.15122-224.780488 224.780488-224.780488z" p-id="2348"></path><path d="M312.195122 62.439024h399.609756c123.629268 0 224.780488 101.15122 224.780488 224.780488v399.609756c0 123.629268-101.15122 224.780488-224.780488 224.780488H312.195122c-123.629268 0-224.780488-101.15122-224.780488-224.780488V287.219512c0-123.629268 101.15122-224.780488 224.780488-224.780488z" fill="#2999FF" p-id="2349"></path><path d="M430.829268 625.639024c0 17.482927-13.736585 31.219512-31.219512 31.219513s-31.219512-13.736585-31.219512-31.219513 13.736585-31.219512 31.219512-31.219512c16.234146 0 31.219512 13.736585 31.219512 31.219512" fill="#FFFFFF" p-id="2350"></path><path d="M399.609756 679.336585c-29.970732 0-53.697561-23.726829-53.697561-53.697561s23.726829-53.697561 53.697561-53.697561 53.697561 23.726829 53.697561 53.697561-24.97561 53.697561-53.697561 53.697561zM364.643902 487.02439h68.682927V314.692683h-68.682927V487.02439z m103.648781-223.531707H329.678049c-9.990244 0-17.482927 7.492683-17.482927 16.234146v414.595122c0 9.990244 7.492683 17.482927 17.482927 17.482927h138.614634c9.990244 0 17.482927-7.492683 17.482927-17.482927V279.726829c0-8.741463-7.492683-16.234146-17.482927-16.234146z m176.078049 350.907317c1.24878 16.234146-9.990244 31.219512-26.224391 33.717073-16.234146 2.497561-31.219512-8.741463-33.717073-24.97561-1.24878-11.239024 2.497561-21.229268 11.239025-28.721951 8.741463-6.243902 19.980488-8.741463 29.970731-3.746341s17.482927 12.487805 18.731708 23.726829z" fill="#FFFFFF" p-id="2351"></path><path d="M620.643902 669.346341c-28.721951 3.746341-54.946341-16.234146-58.692682-44.956097-1.24878-13.736585 2.497561-27.473171 9.990243-38.712195 8.741463-11.239024 21.229268-17.482927 34.965854-19.980488 28.721951-3.746341 54.946341 16.234146 58.692683 44.956098 1.24878 13.736585-2.497561 27.473171-9.990244 38.712195-8.741463 11.239024-21.229268 18.731707-34.965854 19.980487z m-79.921951-343.414634l66.185366-8.741463 22.478049 164.839024-66.185366 8.741464-22.478049-164.839025z m93.658537-63.687805l-132.370732 17.482927c-8.741463 1.24878-14.985366 9.990244-14.985366 18.731708l52.448781 397.112195c1.24878 8.741463 9.990244 14.985366 18.731707 13.736585l132.370732-17.482927c8.741463-1.24878 14.985366-9.990244 14.985366-18.731707l-52.448781-395.863415c-1.24878-8.741463-9.990244-16.234146-18.731707-14.985366z" fill="#FFFFFF" fill-opacity=".5" p-id="2352"></path></svg>