<svg t="1574069647494" class="icon" viewBox="0 0 1024 1024" version="1.1" xmlns="http://www.w3.org/2000/svg" p-id="2225" width="48" height="48"><path d="M312.195122 62.439024h399.609756c123.629268 0 224.780488 101.15122 224.780488 224.780488v399.609756c0 123.629268-101.15122 224.780488-224.780488 224.780488H312.195122c-123.629268 0-224.780488-101.15122-224.780488-224.780488V287.219512c0-123.629268 101.15122-224.780488 224.780488-224.780488z" p-id="2226"></path><path d="M312.195122 62.439024h399.609756c123.629268 0 224.780488 101.15122 224.780488 224.780488v399.609756c0 123.629268-101.15122 224.780488-224.780488 224.780488H312.195122c-123.629268 0-224.780488-101.15122-224.780488-224.780488V287.219512c0-123.629268 101.15122-224.780488 224.780488-224.780488z" fill="#2999FF" p-id="2227"></path><path d="M313.443902 383.37561c41.209756-44.956098 104.897561-62.439024 164.839025-58.692683 67.434146 0 138.614634 36.214634 164.839024 99.902439 8.741463 47.453659-18.731707 98.653659-63.687805 117.385366-23.726829 13.736585-49.95122 23.726829-77.42439 24.975609-31.219512-1.24878-63.687805 3.746341-94.907317-2.497561-18.731707 13.736585-41.209756 22.478049-62.439024 33.717074 0-18.731707 0-38.712195 1.24878-57.443903-22.478049-19.980488-46.204878-41.209756-56.195122-69.931707-7.492683-29.970732 1.24878-63.687805 23.726829-87.414634z m54.946342 41.209756c-7.492683 7.492683-17.482927 14.985366-14.985366 26.22439 0 12.487805 13.736585 16.234146 22.478049 21.229268 12.487805-3.746341 21.229268-12.487805 24.97561-24.975609-4.995122-13.736585-16.234146-24.97561-32.468293-22.478049z m74.926829 26.22439c0 11.239024 12.487805 16.234146 21.229268 21.229268 8.741463-3.746341 19.980488-7.492683 23.72683-17.482926 4.995122-11.239024-3.746341-22.478049-12.487805-29.970732h-17.482927c-7.492683 7.492683-17.482927 14.985366-14.985366 26.22439z m88.663415-3.746341c0 12.487805 12.487805 23.726829 24.97561 23.726829 11.239024-1.24878 22.478049-12.487805 21.229268-24.97561 0-8.741463-8.741463-14.985366-13.736586-21.229268h-17.482926c-6.243902 7.492683-14.985366 13.736585-14.985366 22.478049z" fill="#FFFFFF" p-id="2228"></path><path d="M655.609756 424.585366c28.721951 17.482927 62.439024 32.468293 76.17561 66.185366 4.995122 16.234146 2.497561 32.468293 1.24878 48.702439-2.497561 26.22439-23.726829 43.707317-43.707317 59.941463v48.702439c-18.731707-8.741463-36.214634-17.482927-54.946341-27.473171-58.692683 13.736585-124.878049 0-171.082927-39.960975l-22.478049-3.746342c37.463415-3.746341 77.42439 4.995122 114.887805-9.990244 27.473171-11.239024 56.195122-22.478049 74.926829-46.204878 23.726829-26.22439 33.717073-62.439024 24.97561-96.156097z" fill="#FFFFFF" fill-opacity=".5" p-id="2229"></path></svg>