<svg t="1574069534724" class="icon" viewBox="0 0 1024 1024" version="1.1" xmlns="http://www.w3.org/2000/svg" p-id="2456" width="48" height="48"><path d="M312.195122 62.439024h399.609756c123.629268 0 224.780488 101.15122 224.780488 224.780488v399.609756c0 123.629268-101.15122 224.780488-224.780488 224.780488H312.195122C188.565854 911.609756 87.414634 810.458537 87.414634 686.829268V287.219512C87.414634 163.590244 188.565854 62.439024 312.195122 62.439024z" p-id="2457"></path><path d="M312.195122 62.439024h399.609756c123.629268 0 224.780488 101.15122 224.780488 224.780488v399.609756c0 123.629268-101.15122 224.780488-224.780488 224.780488H312.195122c-123.629268 0-224.780488-101.15122-224.780488-224.780488V287.219512c0-123.629268 101.15122-224.780488 224.780488-224.780488z" fill="#2999FF" p-id="2458"></path><path d="M613.15122 438.321951c68.682927 0 123.629268 54.946341 123.629268 123.629269s-54.946341 123.629268-123.629268 123.629268-123.629268-54.946341-123.629269-123.629268 56.195122-123.629268 123.629269-123.629269z m49.951219 52.448781c-4.995122-3.746341-11.239024-3.746341-16.234146 0l-32.468293 31.219512-32.468293-31.219512c-4.995122-3.746341-11.239024-3.746341-16.234146 0-2.497561 2.497561-3.746341 4.995122-3.746341 7.492683s1.24878 4.995122 3.746341 7.492683l34.965854 33.717073v9.990244h-34.965854c-4.995122 0-9.990244 3.746341-9.990244 8.741463s3.746341 8.741463 9.990244 8.741463h34.965854v13.736586h-34.965854c-4.995122 0-9.990244 3.746341-9.990244 8.741463 0 4.995122 4.995122 8.741463 9.990244 8.741464h34.965854v19.980487c0 6.243902 6.243902 12.487805 12.487805 12.487805 7.492683 0 12.487805-4.995122 12.487804-12.487805v-19.980487h34.965854c4.995122 0 9.990244-3.746341 9.990244-8.741464s-3.746341-8.741463-9.990244-8.741463h-34.965854v-13.736586h34.965854c4.995122 0 9.990244-3.746341 9.990244-8.741463s-3.746341-8.741463-9.990244-8.741463h-34.965854v-9.990244l34.965854-33.717073c2.497561-2.497561 3.746341-4.995122 3.746342-7.492683 1.24878-2.497561 0-4.995122-1.248781-7.492683z" fill="#FFFFFF" fill-opacity=".622" p-id="2459"></path><path d="M328.429268 583.180488h142.360976c3.746341 27.473171 14.985366 52.44878 33.717073 72.429268h-174.829268c-7.492683 0-13.736585-2.497561-18.731708-7.492683-4.995122-4.995122-7.492683-11.239024-7.492682-18.731707v-19.980488c-1.24878-13.736585 9.990244-26.22439 24.975609-26.22439z m13.736586-93.658537h146.107317c-11.239024 19.980488-18.731707 43.707317-18.731708 67.434147v4.995122H342.165854c-7.492683 0-13.736585-2.497561-18.731708-7.492683-3.746341-4.995122-7.492683-9.990244-7.492683-16.234147v-22.478049c0-7.492683 2.497561-13.736585 7.492683-18.731707 3.746341-4.995122 9.990244-7.492683 16.234147-7.492683H488.273171 342.165854z m164.839024-94.907317c7.492683 0 13.736585 2.497561 18.731707 7.492683 3.746341 4.995122 7.492683 9.990244 7.492683 16.234146v22.478049c-9.990244 6.243902-18.731707 14.985366-27.47317 23.726829l-3.746342 3.746342H312.195122c-7.492683 0-13.736585-2.497561-18.731707-7.492683-2.497561-6.243902-6.243902-11.239024-6.243903-17.482927v-22.478049c0-13.736585 11.239024-24.97561 23.726829-26.22439h196.058537zM536.97561 299.707317c7.492683 0 13.736585 2.497561 18.731707 7.492683 3.746341 4.995122 6.243902 9.990244 7.492683 16.234146v22.478049c0 13.736585-11.239024 24.97561-23.726829 26.22439H342.165854c-7.492683 0-13.736585-2.497561-18.731708-7.492683-3.746341-3.746341-6.243902-9.990244-7.492683-16.234146v-22.478049c0-13.736585 11.239024-24.97561 23.72683-26.22439H536.97561z" fill="#FFFFFF" p-id="2460"></path></svg>