<svg t="1574069071469" class="icon" viewBox="0 0 1024 1024" version="1.1" xmlns="http://www.w3.org/2000/svg" p-id="2218" width="48" height="48"><path d="M312.195122 62.439024h399.609756c123.629268 0 224.780488 101.15122 224.780488 224.780488v399.609756c0 123.629268-101.15122 224.780488-224.780488 224.780488H312.195122C188.565854 911.609756 87.414634 810.458537 87.414634 686.829268V287.219512C87.414634 163.590244 188.565854 62.439024 312.195122 62.439024z" p-id="2219"></path><path d="M312.195122 62.439024h399.609756c123.629268 0 224.780488 101.15122 224.780488 224.780488v399.609756c0 123.629268-101.15122 224.780488-224.780488 224.780488H312.195122c-123.629268 0-224.780488-101.15122-224.780488-224.780488V287.219512c0-123.629268 101.15122-224.780488 224.780488-224.780488z" fill="#2999FF" p-id="2220"></path><path d="M689.326829 262.243902H424.585366c-28.721951 0-47.453659 18.731707-47.453659 47.453659V574.439024c0 28.721951 18.731707 47.453659 47.453659 47.453659h263.492683c28.721951 0 47.453659-18.731707 47.453658-47.453659V309.697561c1.24878-28.721951-17.482927-47.453659-46.204878-47.453659zM520.741463 598.165854H424.585366c-14.985366 0-23.726829-9.990244-23.726829-23.72683s9.990244-24.97561 23.726829-24.975609h96.156097c14.985366 0 23.726829 9.990244 23.72683 23.726829s-8.741463 24.97561-23.72683 24.97561z m0-96.156098H424.585366c-14.985366 0-23.726829-9.990244-23.726829-23.726829 0-14.985366 9.990244-23.726829 23.726829-23.726829h96.156097c14.985366 0 23.726829 9.990244 23.72683 23.726829 0 13.736585-8.741463 23.726829-23.72683 23.726829z" fill="#FFFFFF" fill-opacity=".402" p-id="2221"></path><path d="M618.146341 334.673171H334.673171c-28.721951 0-47.453659 18.731707-47.453659 46.204878v283.473171c0 28.721951 18.731707 47.453659 47.453659 47.453658h283.47317c28.721951 0 47.453659-18.731707 47.453659-47.453658V380.878049c-1.24878-27.473171-19.980488-46.204878-47.453659-46.204878z m-94.907317 258.497561h-94.907317c-13.736585 0-23.726829-9.990244-23.726829-23.72683s9.990244-23.726829 23.726829-23.726829h94.907317c13.736585 0 23.726829 9.990244 23.72683 23.726829s-9.990244 23.726829-23.72683 23.72683z m0-93.658537h-94.907317c-13.736585 0-23.726829-9.990244-23.726829-23.726829s9.990244-23.726829 23.726829-23.726829h94.907317c13.736585 0 23.726829 9.990244 23.72683 23.726829S536.97561 499.512195 523.239024 499.512195z" fill="#FFFFFF" p-id="2222"></path></svg>