<svg t="1574069466240" class="icon" viewBox="0 0 1024 1024" version="1.1" xmlns="http://www.w3.org/2000/svg" p-id="2192" width="48" height="48"><path d="M512 512m-512 0a512 512 0 1 0 1024 0 512 512 0 1 0-1024 0Z" fill="#C2C2C2" p-id="2193"></path><path d="M285.525333 513.143467c0-12.1856 10.24-22.4256 22.4256-22.4256h402.773334c12.1856 0 22.4256 10.24 22.4256 22.4256 0 12.1856-10.24 22.4256-22.4256 22.4256H307.473067c-12.202667 0-21.947733-10.24-21.947734-22.4256z" fill="#FFFFFF" p-id="2194"></path><path d="M273.339733 513.143467c0-18.5344 16.0768-34.628267 34.6112-34.628267h402.773334c18.5344 0 34.628267 16.093867 34.628266 34.628267 0 18.5344-16.093867 34.628267-34.628266 34.628266H307.473067c-19.029333 0-34.133333-15.616-34.133334-34.628266z m447.624534 0c0-5.358933-4.881067-10.24-10.24-10.24h-402.773334c-5.358933 0-10.24 4.881067-10.24 10.24s4.386133 10.24 9.762134 10.24h403.2512c5.358933 0 10.24-4.881067 10.24-10.24z" fill="#FFFFFF" p-id="2195"></path><path d="M554.205867 647.7312c0-5.853867 1.9456-11.2128 6.331733-15.616l118.9888-118.971733-118.493867-118.493867a22.357333 22.357333 0 0 1 0-31.6928 22.357333 22.357333 0 0 1 31.6928 0l134.587734 134.587733a22.357333 22.357333 0 0 1 0 31.6928l-134.587734 134.0928a22.357333 22.357333 0 0 1-31.6928 0 21.845333 21.845333 0 0 1-6.826666-15.598933z" fill="#FFFFFF" p-id="2196"></path><path d="M542.0032 647.7312c0-9.2672 3.413333-17.5616 9.762133-24.388267l110.6944-110.199466-110.216533-109.7216c-13.653333-13.653333-13.653333-35.584 0-48.759467 6.3488-6.331733 15.121067-10.24 24.405333-10.24 9.250133 0 18.0224 3.413333 24.3712 10.24l135.0656 134.0928c13.653333 13.653333 13.653333 35.601067 0 48.776533l-134.587733 134.0928c-13.653333 13.653333-35.601067 13.653333-48.759467 0a30.532267 30.532267 0 0 1-10.734933-23.893333z m154.589867-134.587733l-127.761067 127.761066a8.8576 8.8576 0 0 0-2.935467 6.826667c0 2.440533 0.989867 4.864 3.413334 6.826667 3.925333 3.8912 10.24 3.8912 14.6432 0l134.570666-134.0928c3.908267-3.908267 3.908267-10.24 0-14.6432l-134.570666-134.0928a9.915733 9.915733 0 0 0-7.3216-2.9184 9.915733 9.915733 0 0 0-7.3216 2.9184c-3.8912 3.908267-3.8912 10.24 0 14.626133l127.2832 126.788267z" fill="#FFFFFF" p-id="2197"></path></svg>