<svg t="1574069417697" class="icon" viewBox="0 0 1024 1024" version="1.1" xmlns="http://www.w3.org/2000/svg" p-id="2604" width="48" height="48"><path d="M312.195122 62.439024h399.609756c123.629268 0 224.780488 101.15122 224.780488 224.780488v399.609756c0 123.629268-101.15122 224.780488-224.780488 224.780488H312.195122c-123.629268 0-224.780488-101.15122-224.780488-224.780488V287.219512c0-123.629268 101.15122-224.780488 224.780488-224.780488z" p-id="2605"></path><path d="M312.195122 62.439024h399.609756c123.629268 0 224.780488 101.15122 224.780488 224.780488v399.609756c0 123.629268-101.15122 224.780488-224.780488 224.780488H312.195122c-123.629268 0-224.780488-101.15122-224.780488-224.780488V287.219512c0-123.629268 101.15122-224.780488 224.780488-224.780488z" fill="#2999FF" p-id="2606"></path><path d="M606.907317 262.243902c19.980488 0 24.97561 16.234146 24.97561 24.97561v7.492683h18.731707c26.22439 0 47.453659 21.229268 48.702439 46.204878V474.536585l-11.239024-7.492683c-9.990244-6.243902-19.980488-9.990244-31.219512-13.736585-3.746341-6.243902-9.990244-11.239024-18.731708-11.239024h-39.960975c-7.492683 0-13.736585 3.746341-17.482927 9.990244-12.487805 3.746341-24.97561 8.741463-36.214634 14.985365-27.473171 16.234146-47.453659 39.960976-59.941464 67.434147h-17.482927c-11.239024 0-19.980488 8.741463-19.980487 19.980488 0 11.239024 7.492683 18.731707 18.731707 19.980487h9.990244c-1.24878 7.492683-1.24878 12.487805-1.248781 18.731708 0 22.478049 4.995122 44.956098 14.985366 63.687805H337.170732c-26.22439 0-47.453659-21.229268-48.702439-46.204878V344.663415c0-26.22439 21.229268-47.453659 46.204878-48.702439h22.478049v-7.492683c0-8.741463 6.243902-26.22439 26.22439-26.224391s24.97561 16.234146 24.97561 24.97561v7.492683h171.082926v-6.243902c1.24878-8.741463 7.492683-26.22439 27.473171-26.224391zM388.370732 535.726829h-39.960976c-11.239024 0-19.980488 8.741463-19.980488 19.980488 0 11.239024 7.492683 18.731707 18.731708 19.980488H389.619512c11.239024 0 19.980488-8.741463 19.980488-19.980488-1.24878-11.239024-9.990244-19.980488-21.229268-19.980488z m0-91.160975h-39.960976c-11.239024 0-19.980488 9.990244-19.980488 19.980487 0 11.239024 7.492683 18.731707 18.731708 19.980488H389.619512c11.239024 0 19.980488-8.741463 19.980488-19.980488-1.24878-11.239024-9.990244-19.980488-21.229268-19.980487z m121.131707 0h-39.960976c-11.239024 0-19.980488 9.990244-19.980487 19.980487 0 11.239024 7.492683 18.731707 18.731707 19.980488H510.75122c11.239024 0 19.980488-8.741463 19.980487-19.980488-1.24878-11.239024-9.990244-19.980488-21.229268-19.980487z m114.887805-101.15122H353.404878c-13.736585 0-24.97561 11.239024-24.97561 24.97561 0 12.487805 9.990244 23.726829 22.478049 24.97561H624.390244c13.736585 0 24.97561-9.990244 24.97561-24.97561 0-13.736585-9.990244-24.97561-24.97561-24.97561z" fill="#FFFFFF" p-id="2607"></path><path d="M499.512195 586.926829c0 39.960976 21.229268 77.42439 57.443903 97.404878 34.965854 19.980488 78.673171 19.980488 113.639024 0s57.443902-57.443902 57.443902-97.404878-21.229268-77.42439-57.443902-97.404878c-34.965854-19.980488-78.673171-19.980488-113.639024 0-36.214634 19.980488-57.443902 57.443902-57.443903 97.404878z" fill="#FFFFFF" fill-opacity=".5" p-id="2608"></path><path d="M589.42439 638.126829L550.712195 599.414634c-7.492683-7.492683-7.492683-18.731707 0-26.22439 7.492683-7.492683 18.731707-7.492683 26.22439 0l38.712195 38.712195c7.492683 7.492683 7.492683 18.731707 0 26.22439s-18.731707 6.243902-26.22439 0z" fill="#2999FF" p-id="2609"></path><path d="M680.585366 571.941463L615.64878 636.878049c-7.492683 7.492683-18.731707 7.492683-26.22439 0s-7.492683-18.731707 0-26.22439l64.936586-64.936586c7.492683-7.492683 18.731707-7.492683 26.22439 0 7.492683 7.492683 7.492683 19.980488 0 26.22439z" fill="#2999FF" p-id="2610"></path></svg>