<svg t="1574069510167" class="icon" viewBox="0 0 1024 1024" version="1.1" xmlns="http://www.w3.org/2000/svg" p-id="2322" width="48" height="48"><path d="M312.195122 62.439024h399.609756c123.629268 0 224.780488 101.15122 224.780488 224.780488v399.609756c0 123.629268-101.15122 224.780488-224.780488 224.780488H312.195122C188.565854 911.609756 87.414634 810.458537 87.414634 686.829268V287.219512C87.414634 163.590244 188.565854 62.439024 312.195122 62.439024z" p-id="2323"></path><path d="M312.195122 62.439024h399.609756c123.629268 0 224.780488 101.15122 224.780488 224.780488v399.609756c0 123.629268-101.15122 224.780488-224.780488 224.780488H312.195122c-123.629268 0-224.780488-101.15122-224.780488-224.780488V287.219512c0-123.629268 101.15122-224.780488 224.780488-224.780488z" fill="#2999FF" p-id="2324"></path><path d="M701.814634 526.985366l8.741464 32.468293c4.995122 14.985366-4.995122 31.219512-18.731708 34.965853l-211.043902 59.941464c-14.985366 4.995122-31.219512-4.995122-34.965854-18.731708l-8.741463-32.468292c13.736585-4.995122 21.229268-19.980488 16.234146-33.717074-3.746341-13.736585-18.731707-22.478049-31.219512-19.980487l-11.239025-38.712195c-4.995122-14.985366 4.995122-31.219512 18.731708-34.965854l211.043902-59.941464c14.985366-4.995122 31.219512 4.995122 34.965854 18.731708l11.239024 38.712195c-13.736585 4.995122-21.229268 19.980488-16.234146 33.717073 2.497561 13.736585 16.234146 22.478049 31.219512 19.980488z" fill="#FFFFFF" fill-opacity=".5" p-id="2325"></path><path d="M502.009756 621.892683c-2.497561 0-4.995122-2.497561-6.243902-4.995122l-1.248781-4.995122c-1.24878-3.746341 1.24878-7.492683 4.995122-8.741463 3.746341-1.24878 7.492683 1.24878 8.741464 4.995122l2.497561 6.243902c1.24878 3.746341-1.24878 7.492683-4.995122 8.741463h-3.746342v-1.24878z m-8.741463-29.970732c-2.497561 0-4.995122-2.497561-6.243903-4.995122l-2.497561-6.243902c-1.24878-3.746341 1.24878-7.492683 4.995122-8.741464 3.746341-1.24878 7.492683 1.24878 8.741464 4.995122l2.497561 6.243903c1.24878 3.746341-1.24878 7.492683-4.995122 8.741463h-2.497561z m-8.741464-29.970731c-2.497561 0-4.995122-2.497561-6.243902-4.995122l-2.497561-6.243903c-1.24878-3.746341 1.24878-7.492683 4.995122-8.741463 3.746341-1.24878 7.492683 1.24878 8.741463 4.995122l2.497561 6.243902c1.24878 3.746341-1.24878 7.492683-4.995122 8.741464h-2.497561z m-8.741463-31.219513c-2.497561 0-4.995122-2.497561-6.243903-4.995122l-2.497561-6.243902c-1.24878-3.746341 1.24878-7.492683 4.995122-8.741463 3.746341-1.24878 7.492683 1.24878 8.741464 4.995121l2.497561 6.243903c1.24878 3.746341-1.24878 7.492683-4.995122 8.741463h-2.497561z m-7.492683-29.970731c-2.497561 0-4.995122-2.497561-6.243903-4.995122l-2.49756-6.243903c-1.24878-3.746341 1.24878-7.492683 4.995121-8.741463 3.746341-1.24878 7.492683 1.24878 8.741464 4.995122l2.497561 6.243902c1.24878 3.746341-1.24878 7.492683-4.995122 8.741464h-2.497561z" fill="#DAE9FF" p-id="2326"></path><path d="M498.263415 623.141463c-2.497561 0-4.995122-2.497561-6.243903-4.995122l-1.24878-6.243902c-1.24878-3.746341 1.24878-7.492683 4.995122-8.741463 3.746341-1.24878 7.492683 1.24878 8.741463 4.995122l2.497561 6.243902c1.24878 3.746341-1.24878 7.492683-4.995122 8.741463h-3.746341z m-7.492683-29.970731c-2.497561 0-4.995122-2.497561-6.243903-4.995122l-2.497561-6.243903c-1.24878-2.497561 1.24878-7.492683 4.995122-7.492683 3.746341-1.24878 7.492683 1.24878 8.741464 4.995122l2.497561 6.243903c1.24878 3.746341-1.24878 7.492683-4.995122 8.741463-2.497561-2.497561-2.497561-1.24878-2.497561-1.24878z m-9.990244-29.970732c-2.497561 0-4.995122-2.497561-6.243903-4.995122l-2.497561-6.243902c-1.24878-3.746341 1.24878-7.492683 4.995122-8.741464 3.746341-1.24878 7.492683 1.24878 8.741464 4.995122l2.497561 6.243903c1.24878 3.746341-1.24878 7.492683-4.995122 8.741463h-2.497561z m-8.741464-31.219512c-2.497561 0-4.995122-2.497561-6.243902-4.995122l-1.248781-6.243903c-1.24878-3.746341 1.24878-7.492683 4.995122-8.741463 3.746341-1.24878 7.492683 1.24878 8.741464 4.995122l2.497561 6.243902c1.24878 3.746341-1.24878 7.492683-4.995122 8.741464h-3.746342z m-7.492683-29.970732c-2.497561 0-4.995122-2.497561-6.243902-4.995122l-2.497561-6.243902c-1.24878-3.746341 1.24878-7.492683 4.995122-8.741464 3.746341-1.24878 7.492683 1.24878 8.741463 4.995122l2.497561 6.243903c1.24878 3.746341-1.24878 7.492683-4.995122 8.741463h-2.497561z" fill="#FFFFFF" p-id="2327"></path><path d="M507.004878 512c2.497561-7.492683 11.239024-14.985366 18.731707-17.482927 0 0 31.219512-9.990244 51.2-14.985366l6.243903-2.497561c8.741463-1.24878 16.234146 4.995122 18.731707 12.487805l-1.24878-2.497561c2.497561 8.741463-2.497561 17.482927-11.239025 18.731708L528.234146 524.487805c-8.741463 2.497561-18.731707-2.497561-21.229268-9.990244V512z m16.234146 46.204878c2.497561-7.492683 11.239024-14.985366 18.731708-17.482927l98.653658-27.473171c7.492683-2.497561 16.234146 2.497561 18.731708 8.741464l1.24878 2.497561c3.746341 8.741463 0 16.234146-8.741463 18.731707L549.463415 573.190244l-2.497561 1.24878c-8.741463 2.497561-18.731707-2.497561-22.478049-8.741463l-2.497561-2.497561 1.24878-4.995122z" fill="#DAE9FF" p-id="2328"></path><path d="M516.995122 497.014634l59.941463-17.482927c6.243902-2.497561 13.736585 2.497561 14.985366 8.741464s-2.497561 13.736585-8.741463 14.985366l-59.941464 17.482926c-6.243902 2.497561-13.736585-2.497561-14.985365-8.741463-2.497561-7.492683 1.24878-13.736585 8.741463-14.985366z m12.487805 47.453659l108.643902-31.219513c6.243902-2.497561 13.736585 2.497561 14.985366 8.741464 2.497561 6.243902-2.497561 13.736585-8.741463 14.985366L536.97561 568.195122c-6.243902 2.497561-13.736585-2.497561-14.985366-8.741463-2.497561-7.492683 1.24878-12.487805 7.492683-14.985366z" fill="#FFFFFF" p-id="2329"></path><path d="M709.307317 410.84878l21.229268 44.956098c9.990244 19.980488 2.497561 43.707317-18.731707 53.697561L429.580488 649.365854c-19.980488 9.990244-43.707317 2.497561-53.697561-18.731708l-21.229268-44.956097c17.482927-11.239024 23.726829-33.717073 13.736585-52.448781-9.990244-19.980488-31.219512-27.473171-51.2-21.229268l-24.97561-52.44878c-9.990244-19.980488-2.497561-43.707317 18.731707-53.697561l283.473171-139.863415c19.980488-9.990244 43.707317-2.497561 53.697561 18.731707l26.22439 53.697561c-17.482927 11.239024-23.726829 33.717073-13.736585 52.448781 8.741463 18.731707 29.970732 27.473171 48.702439 19.980487z" fill="#FFFFFF" p-id="2330"></path><path d="M443.317073 595.668293c-3.746341 0-6.243902-2.497561-8.741463-4.995122l-3.746342-8.741464c-2.497561-4.995122 0-9.990244 4.995122-11.239024 4.995122-2.497561 9.990244 0 11.239025 4.995122l3.746341 8.741463c2.497561 4.995122 0 9.990244-4.995122 11.239025h-2.497561z m-19.980488-41.209756c-3.746341 0-6.243902-2.497561-8.741463-4.995122l-2.497561-8.741464c-2.497561-4.995122 0-9.990244 4.995122-11.239024 4.995122-2.497561 9.990244 0 11.239024 4.995122l3.746342 8.741463c2.497561 4.995122 0 9.990244-4.995122 11.239025h-3.746342z m-19.980487-39.960976c-3.746341 0-6.243902-2.497561-8.741464-4.995122l-3.746341-8.741463c-2.497561-4.995122 0-9.990244 4.995122-11.239025 4.995122-2.497561 9.990244 0 11.239024 4.995122l3.746341 8.741464c2.497561 4.995122 0 9.990244-4.995121 11.239024 0-1.24878 0 0-2.497561 0zM384.62439 474.536585c-3.746341 0-6.243902-2.497561-8.741463-4.995122l-3.746342-8.741463c-2.497561-4.995122 0-9.990244 4.995122-11.239024 4.995122-1.24878 9.990244 0 11.239025 4.995122l3.746341 7.492682c2.497561 4.995122 0 9.990244-4.995122 11.239025 0 0-1.24878 1.24878-2.497561 1.24878z m-19.980488-41.209756c-3.746341 0-6.243902-2.497561-8.741463-4.995122l-3.746341-8.741463c-2.497561-4.995122 0-9.990244 4.995122-11.239024 4.995122-2.497561 9.990244 0 11.239024 4.995121l3.746341 8.741464c2.497561 4.995122 0 9.990244-4.995122 11.239024 0-1.24878-1.24878 0-2.497561 0zM438.321951 413.346341l81.170732-39.960975c8.741463-4.995122 19.980488-1.24878 24.97561 8.741463s1.24878 19.980488-8.741464 24.97561l-81.170731 39.960976c-8.741463 4.995122-19.980488 1.24878-24.97561-8.741464-3.746341-9.990244 1.24878-21.229268 8.741463-24.97561z m32.468293 64.936586l144.858536-71.180488c8.741463-4.995122 19.980488-1.24878 24.97561 8.741463 4.995122 8.741463 1.24878 19.980488-8.741463 24.97561L487.02439 509.502439c-8.741463 4.995122-19.980488 1.24878-24.97561-8.741463-3.746341-7.492683 0-18.731707 8.741464-22.478049z" fill="#2999FF" p-id="2331"></path></svg>