<?xml version="1.0" encoding="UTF-8"?>
<svg width="36px" height="34px" viewBox="0 0 36 34" version="1.1" xmlns="http://www.w3.org/2000/svg" xmlns:xlink="http://www.w3.org/1999/xlink">
    <!-- Generator: Sketch 57.1 (83088) - https://sketch.com -->
    <title>设置</title>
    <desc>Created with Sketch.</desc>
    <g id="家政人员2" stroke="none" stroke-width="1" fill="none" fill-rule="evenodd">
        <g id="我的" transform="translate(-244.000000, -258.000000)" fill="#C2C2C2" fill-rule="nonzero">
            <g id="设置" transform="translate(244.000000, 258.000000)">
                <path d="M23.3644518,33.9691744 C22.7127155,33.9691744 22.0753504,33.6974358 21.6643326,33.2461784 C21.1088837,32.6339631 19.3361897,31.0394726 17.8875674,31.0394726 C16.4446936,31.0394726 14.6504427,32.6404302 14.1330776,33.2016275 C13.7206227,33.6478549 13.0933175,33.9137231 12.4466111,33.9137232 C12.1501682,33.9153937 11.8565872,33.8556989 11.584336,33.7383938 L11.5383479,33.7189927 L7.12781049,31.2550414 L7.08469676,31.2248618 C6.28062516,30.6615087 5.9745175,29.563545 6.37116404,28.6703716 C6.37691253,28.6646231 6.77643337,27.7319288 6.77643337,26.8840249 C6.7724765,24.306133 4.68366819,22.2173246 2.10577626,22.2133678 L1.92110566,22.2133678 C1.1838604,22.2133678 0.581704912,21.5566015 0.391285821,20.5427096 C0.375477423,20.4629492 0.0147589727,18.5357642 0.0147589727,17.019597 C0.0147589727,15.504867 0.375477423,13.577682 0.390567244,13.4986401 C0.585297712,12.470377 1.19751307,11.8128922 1.94984815,11.827982 L2.10577626,11.827982 C4.6836682,11.8240251 6.77247652,9.7352168 6.77643337,7.15732486 C6.77643337,6.30870237 6.37691253,5.37528953 6.37116404,5.37097816 C5.97451746,4.47708625 6.28134369,3.37840397 7.08900814,2.81648798 L7.13355902,2.78702692 L11.7848149,0.232536742 L11.8351143,0.211698433 C12.1051867,0.0985782363 12.3952448,0.0409087175 12.6880482,0.0420990299 C13.3361917,0.0420990299 13.9670897,0.30295589 14.378826,0.7391234 C14.9306822,1.31756632 16.6667295,2.81648798 18.0772679,2.81648798 C19.471998,2.81648798 21.2022968,1.34630885 21.7498415,0.779362907 C22.1608594,0.353255263 22.7896017,0.096728401 23.424811,0.0967284431 C23.7359487,0.0967284431 24.0284037,0.156369148 24.2928347,0.272057714 L24.3388227,0.292896024 L28.8284021,2.78702692 L28.8736715,2.81648798 C29.676306,3.37840397 29.9831322,4.47780479 29.5857671,5.37097816 C29.5814557,5.37528953 29.1790606,6.30870241 29.1790606,7.15732486 C29.1790606,9.73121623 31.2765449,11.827982 33.8511549,11.827982 L34.0063644,11.827982 C34.7543881,11.8128922 35.3716334,12.470377 35.5670824,13.4986401 C35.5821723,13.5784005 35.9428907,15.504867 35.9428907,17.019597 C35.9428907,18.5357642 35.5821723,20.4629492 35.5670824,20.5419911 C35.372352,21.5702542 34.7586995,22.2284575 34.0063644,22.2126492 L33.8511549,22.2126492 C31.276545,22.2126492 29.1790606,24.309415 29.1790606,26.8833063 C29.1790606,27.7319288 29.5821743,28.6646231 29.5857671,28.669653 C29.9831322,29.5628264 29.676306,30.6607901 28.8736715,31.2241432 L28.8284021,31.2543228 L24.2633737,33.7779148 L24.2130743,33.797316 C23.945454,33.9136955 23.6562647,33.972219 23.3644518,33.9691744 Z M23.2236135,31.8169574 C23.2668288,31.8403319 23.3153259,31.8522087 23.3644518,31.8514827 L23.3702003,31.8514827 L27.6355881,29.4938444 C27.5285223,29.2531259 27.0628937,28.0940844 27.0628937,26.8797135 C27.0628937,23.2567207 29.9170245,20.2876199 33.4947478,20.1007936 C33.5450472,19.8155243 33.8252866,18.2195967 33.8252866,17.0160042 C33.8252866,15.8167232 33.5450472,14.2164842 33.4947478,13.9297777 C29.9170245,13.7443885 27.0628937,10.7745692 27.0628937,7.15157637 C27.0628937,5.9379241 27.5349893,4.77313404 27.6398995,4.53744549 L23.4399009,2.2049912 L23.424811,2.2049912 C23.3691122,2.2053294 23.3142548,2.21861326 23.2645716,2.2437936 C23.194871,2.31493128 22.5876856,2.93217659 21.709602,3.5494219 C20.4147522,4.45696652 19.1917586,4.91900229 18.0729565,4.91900225 C16.9426575,4.91900225 15.7088855,4.44690661 14.4039757,3.51852369 C13.8469271,3.12111009 13.3252297,2.67634498 12.8446948,2.1891828 C12.7950311,2.16242056 12.7394326,2.14858271 12.6830182,2.14893643 L12.668647,2.14893643 L8.31846877,4.53744549 C8.42337893,4.77816395 8.88972604,5.93792406 8.88972609,7.14582788 C8.88972609,10.7688207 6.03631385,13.7393586 2.45930907,13.9254663 C2.40757254,14.2107357 2.12733311,15.8059448 2.12733311,17.0095372 C2.12733311,18.2095368 2.40757254,19.8090572 2.45859049,20.0957637 C6.03559528,20.2811529 8.88900751,23.2516908 8.88900751,26.8732464 C8.88900751,28.0883359 8.4140376,29.2524073 8.31200174,29.4873773 L12.4272099,31.7910891 L12.4372698,31.7910891 C12.4847201,31.792336 12.5315546,31.7801291 12.5723596,31.7558796 C12.6470901,31.6754006 13.2650539,31.0229457 14.1481674,30.3762393 C15.4660113,29.4061798 16.7220588,28.9204314 17.8760704,28.9204314 C19.0394233,28.9204314 20.3040935,29.4219881 21.6298416,30.4057004 C22.2030222,30.8265348 22.7365025,31.2989222 23.2236135,31.8169574 L23.2236135,31.8169574 Z" id="形状"></path>
                <path d="M17.9012201,23.2222297 C14.4686464,23.2222297 11.6791862,20.432051 11.6791862,17.0001958 C11.6791862,13.5683407 14.4686464,10.778162 17.9012201,10.778162 C21.3330752,10.778162 24.1225354,13.5676221 24.1225354,17.0001958 C24.1225354,20.4263025 21.3330752,23.2222297 17.9012201,23.2222297 Z M17.9012201,12.8964847 C15.6355546,12.8988594 13.7992398,14.7345313 13.7960717,17.0001958 C13.7992398,19.2658604 15.6355546,21.1015323 17.9012201,21.103907 C20.1663715,21.1011348 22.0018371,19.2653477 22.0042127,17.0001958 C22.0022324,14.73488 20.1665355,12.8988617 17.9012201,12.8964847 L17.9012201,12.8964847 Z" id="形状"></path>
            </g>
        </g>
    </g>
</svg>