<svg t="1574070897089" class="icon" viewBox="0 0 1024 1024" version="1.1" xmlns="http://www.w3.org/2000/svg" p-id="6177" width="48" height="48"><path d="M178.517333 904.0896h554.666667V858.112H276.957867c-19.694933 0-36.113067-16.418133-36.113067-36.113067V205.0048H178.517333v699.050667z" fill="#FFFFFF" p-id="6178"></path><path d="M733.184 858.112v45.9776H178.517333V205.0048h62.327467V126.225067h-101.717333c-19.694933 0-36.113067 16.418133-36.113067 36.113066v784.384c0 19.729067 16.384 36.113067 36.113067 36.113067H775.850667c19.6608 0 36.078933-16.384 36.078933-36.078933V858.112H733.184z" fill="#CCCED6" p-id="6179"></path><path d="M319.624533 779.3664h521.864534V113.083733h-59.0848v272.418134s3.2768 3.310933 3.2768 6.587733-3.2768 9.8304-9.8304 9.8304c-3.310933 0-9.864533-3.2768-9.864534-9.8304l-85.333333-85.333333-85.333333 85.333333s-3.2768 3.2768-6.5536 3.2768-9.864533-3.2768-9.864534-9.864533v-272.384H316.347733v666.248533h3.2768z" fill="#FFFFFF" p-id="6180"></path><path d="M920.234667 113.117867v-42.666667c0-19.694933-16.384-36.113067-36.078934-36.113067H276.957867c-19.694933 0-36.113067 16.384-36.113067 36.113067v751.581867c0 19.694933 16.418133 36.113067 36.113067 36.113066h603.886933c19.694933 0 32.836267-13.141333 36.113067-29.559466V113.117867h3.2768z m-338.056534 272.384c0 3.310933 3.310933 9.864533 9.864534 9.864533 3.2768 0 3.2768 0 6.5536-3.2768l85.333333-85.333333 85.333333 85.333333c0 3.2768 3.2768 9.8304 9.864534 9.8304 3.2768 0 9.8304-3.2768 9.8304-9.8304 0-3.2768 0-3.2768-3.2768-6.587733v-272.384h59.050666v666.248533H319.658667V113.083733h262.5536v272.418134z" fill="#2999FF" p-id="6181"></path></svg>