<svg t="1574070952396" class="icon" viewBox="0 0 1024 1024" version="1.1" xmlns="http://www.w3.org/2000/svg" p-id="6306" width="48" height="48"><path d="M102.912 698.4704a81.2032 81.2032 0 1 0 162.4064 0 81.2032 81.2032 0 0 0-162.4064 0zM256.238933 472.2688a72.8064 72.8064 0 1 0 145.6128 0 72.8064 72.8064 0 0 0-145.6128 0z" fill="#2999FF" p-id="6307"></path><path d="M307.131733 497.117867l30.788267-40.516267 279.7568 212.48-30.788267 40.5504z" fill="#2999FF" p-id="6308"></path><path d="M160.324267 681.301333l150.528-220.535466 42.0864 28.672-150.562134 220.5696z" fill="#2999FF" p-id="6309"></path><path d="M506.538667 694.3744a100.693333 100.693333 0 1 0 201.386666 0 100.693333 100.693333 0 0 0-201.386666 0zM721.169067 338.944a99.328 99.328 0 1 0 198.656 0 99.328 99.328 0 0 0-198.656 0z" fill="#2999FF" p-id="6310"></path><path d="M580.881067 675.566933l222.378666-346.3168 42.837334 27.511467-222.378667 346.3168z" fill="#2999FF" p-id="6311"></path></svg>