<svg t="1574071176071" class="icon" viewBox="0 0 1024 1024" version="1.1" xmlns="http://www.w3.org/2000/svg" p-id="6436" width="48" height="48"><path d="M681.198933 619.451733c-20.241067 98.884267-110.523733 192.1024-221.661866 192.1024-118.9888 0-214.596267-103.492267-218.794667-215.2448-4.130133-111.5136 135.7824-286.037333 216.644267-367.616 26.282667 26.180267 57.856 62.7712 87.927466 100.864 6.9632-12.219733 16.008533-25.531733 23.995734-36.0448a1487.189333 1487.189333 0 0 0-109.738667-122.504533c-95.607467 96.733867-254.634667 284.398933-254.634667 424.686933 0 140.288 114.005333 254.020267 254.634667 254.020267 133.563733 0 243.029333-102.638933 253.678933-233.130667" fill="#2999FF" p-id="6437"></path><path d="M679.355733 200.738133c-51.473067 51.370667-137.1136 176.128-137.1136 250.6752 0 74.513067 61.371733 134.929067 137.1136 134.929067 75.707733 0 137.1136-60.416 137.1136-134.929067 0-74.5472-83.5584-197.973333-137.1136-250.6752zM444.757333 681.813333h23.9616a23.995733 23.995733 0 0 0 23.995734-23.9616v-35.976533h38.365866a23.995733 23.995733 0 0 0 23.9616-23.995733v-23.9616a23.995733 23.995733 0 0 0-23.9616-23.995734h-38.365866v-35.976533a23.995733 23.995733 0 0 0-23.995734-23.9616h-23.9616a23.995733 23.995733 0 0 0-23.995733 23.9616v35.976533h-33.5872a23.995733 23.995733 0 0 0-23.9616 23.995734v23.9616c0 13.243733 10.717867 23.995733 23.9616 23.995733h33.5872v35.976533c0 13.243733 10.717867 23.9616 23.995733 23.9616z" fill="#2999FF" p-id="6438"></path></svg>