<svg t="1574069901765" class="icon" viewBox="0 0 1024 1024" version="1.1" xmlns="http://www.w3.org/2000/svg" p-id="2608" width="48" height="48"><path d="M0 0h742.4c155.52 0 281.6 126.08 281.6 281.6v460.8c0 155.52-126.08 281.6-281.6 281.6H281.6C126.08 1024 0 897.92 0 742.4V0z" fill="#1377D1" p-id="2609"></path><path d="M586.0864 438.5792l-41.6-54.4896a12.5056 12.5056 0 0 0-9.984-5.0304h-95.5264a12.8 12.8 0 0 0-11.4176 7.3728 622.0544 622.0544 0 0 0-53.3632 314.5344l1.8944 21.0176v0.512a33.7024 33.7024 0 0 0 33.6384 30.2848h210.5728a32.448 32.448 0 0 0 31.8208-24.7424l1.3184-4.736a318.8736 318.8736 0 0 0-67.3536-284.7232z m42.8928 278.144l-1.024 4.7488a7.7184 7.7184 0 0 1-7.6544 6.0544h-210.56a8.2816 8.2816 0 0 1-8.4096-7.424l-2.112-21.5936a598.4512 598.4512 0 0 1 47.936-294.4896h80.9984l37.9392 49.472s0 0.512 0.512 0.8064a293.3376 293.3376 0 0 1 62.3744 262.4384z" fill="#FFFFFF" fill-opacity=".5" p-id="2610"></path><path d="M513.1904 514.4448a76.8384 76.8384 0 1 0 0 153.6768 76.8384 76.8384 0 0 0 0-153.6768z m-79.4624-169.3184h5.7088l2.9184 15.7696a12.6208 12.6208 0 0 0 1.3056 3.2 9.1392 9.1392 0 0 0 8.3968 5.7088h68.5568a9.3056 9.3056 0 0 0 9.2032-8.3968l2.9056-16.0512h12.6336l35.5328 35.5328c2.1504 2.176 5.0944 3.3792 8.1664 3.3664a12.3392 12.3392 0 0 0 8.1664-3.3664 11.4304 11.4304 0 0 0 0-16.3456l-26.9056-27.1872 18.688-9.2032a11.0208 11.0208 0 0 0 6.272-10.2272v-22.272a11.4304 11.4304 0 0 0-6.272-10.2784l-31.8848-15.5392a11.0848 11.0848 0 0 0-4.9664-1.024h-98.7136a11.4304 11.4304 0 0 0-9.2032 4.4416l-27.8784 37.1328a21.248 21.248 0 0 0-2.112 22.8608c3.6992 7.3472 11.264 11.9552 19.4816 11.8784z" fill="#FFFFFF" fill-opacity=".5" p-id="2611"></path></svg>