<svg t="1574069882820" class="icon" viewBox="0 0 1024 1024" version="1.1" xmlns="http://www.w3.org/2000/svg" p-id="2481" width="48" height="48"><path d="M0 0m281.6 0l460.8 0q281.6 0 281.6 281.6l0 460.8q0 281.6-281.6 281.6l-460.8 0q-281.6 0-281.6-281.6l0-460.8q0-281.6 281.6-281.6Z" fill="#1377D1" p-id="2482"></path><path d="M670.3616 637.8624V474.7136c0-13.7728 0.8832-22.7328-7.936-27.4816-5.376-2.9056-16.1664-1.6512-23.9616-1.6512H391.6032l-3.3664 0.64c-3.7376 1.28-6.8352 3.968-8.64 7.488-2.0608 3.776-1.5616 10.496-1.5616 16.448V641.536c0 4.992-0.2816 10.2528 0.6016 14.4256 2.3808 11.52 7.4624 20.928 14.8608 27.136 5.76 4.7872 12.096 8.2816 20.6336 10.24 4.6592 1.1136 10.8032 0.64 16.32 0.64h188.928c5.0944 0 10.5856 0.3584 14.8864-0.64 10.3424-2.4064 19.2896-7.296 24.9344-14.6944 4.3904-5.76 8.064-12.0064 10.0608-20.3776 1.3824-5.76 1.1008-13.2224 1.1008-20.4032z m-179.3536-11.4944a22.5792 22.5792 0 1 1-45.1456 0v-112.8192a22.5792 22.5792 0 1 1 45.1456 0v112.8448-0.0256z m112.8448 0a22.5792 22.5792 0 1 1-45.12 0v-112.8192a22.5792 22.5792 0 1 1 45.12 0v112.8448-0.0256zM694.144 378.112h-45.1456a45.1456 45.1456 0 0 0-45.1456-45.12H445.8624a45.1328 45.1328 0 0 0-45.12 45.12h-45.184a22.5792 22.5792 0 1 0 0 45.1456h338.56a22.5792 22.5792 0 1 0 0-45.1456h0.0256z" fill="#FFFFFF" opacity=".502" p-id="2483"></path></svg>