<svg t="1574069625858" class="icon" viewBox="0 0 1024 1024" version="1.1" xmlns="http://www.w3.org/2000/svg" p-id="2585" width="48" height="48"><path d="M281.6 0h460.8c156.16 0 281.6 125.44 281.6 281.6v742.4H281.6C125.44 1024 0 898.56 0 742.4V281.6C0 125.44 125.44 0 281.6 0z" fill="#74B9F8" p-id="2586"></path><path d="M442.88 357.12s57.6 89.6 90.88 133.12c0 0 88.32 119.04 19.2 220.16 0 0-96 126.72-217.6 0 0 0-74.24-84.48 20.48-220.16 0 0 74.24-97.28 87.04-133.12z" fill="#FFFFFF" fill-opacity=".457" p-id="2587"></path><path d="M669.44 413.44s88.32 119.04 19.2 220.16c0 0-66.56 88.32-160 43.52-17.92-8.96-38.4-23.04-58.88-43.52 0 0-74.24-84.48 20.48-220.16 0 0 74.24-96 87.04-133.12 1.28 1.28 58.88 89.6 92.16 133.12z" fill="#FFFFFF" p-id="2588"></path><path d="M581.12 701.44c-40.96 0-80.64-20.48-119.04-60.16 0-1.28-78.08-93.44 20.48-232.96 1.28-1.28 74.24-96 85.76-130.56L576 256l12.8 19.2c0 1.28 57.6 89.6 89.6 131.84 3.84 5.12 93.44 126.72 19.2 232.96-2.56 2.56-44.8 57.6-110.08 61.44h-6.4z m0-398.08c-23.04 43.52-76.8 113.92-80.64 116.48-88.32 125.44-24.32 202.24-21.76 206.08 34.56 37.12 71.68 55.04 107.52 52.48 55.04-2.56 93.44-51.2 93.44-52.48 64-92.16-19.2-204.8-19.2-206.08-24.32-32-61.44-88.32-79.36-116.48z" fill="#2999FF" fill-opacity=".461" p-id="2589"></path></svg>