<svg t="1574069871173" class="icon" viewBox="0 0 1024 1024" version="1.1" xmlns="http://www.w3.org/2000/svg" p-id="2354" width="48" height="48"><path d="M0 0m281.6 0l460.8 0q281.6 0 281.6 281.6l0 460.8q0 281.6-281.6 281.6l-460.8 0q-281.6 0-281.6-281.6l0-460.8q0-281.6 281.6-281.6Z" fill="#1377D1" p-id="2355"></path><path d="M396.4544 581.952h249.4464a16.384 16.384 0 0 0 16.6016-15.9232l-111.04-63.04v-203.904a30.2848 30.2848 0 0 0-60.5696 0v203.904l-112.1536 63.04c0.2432 8.96 7.6416 16.0512 16.6016 15.9232h1.1136z m286.016 42.176a24.2304 24.2304 0 0 0-22.4384-22.4384H388.8256a24.448 24.448 0 0 0-22.4256 22.4384l-10.7648 48-34.7776 56.5248c-5.376 11.6736 15.7056 11.4432 29.3888 15.0272 13.2992 3.5968 27.3024 3.5968 40.6016 0 0 0 8.9728-1.344 20.6336-2.24 8.7552-7.3984 28.9408-25.5744 30.7328-39.936 1.792-14.336 13.9136 29.6192 16.832 40.832a5.376 5.376 0 0 1 2.4576 1.344c8.7552 8.9728 35.8912 7.8592 35.8912 7.8592 12.608 2.7136 25.6 3.1616 38.3616 1.344l67.3024-19.2896 31.616 13.9008a106.7776 106.7776 0 0 0 42.4064-1.792h1.792c10.0992-2.9184 15.9232-7.6288 16.384-12.3392 5.4656-3.8528 8.7296-10.1248 8.7424-16.8192l-21.5296-92.416z" fill="#FFFFFF" opacity=".502" p-id="2356"></path></svg>